<svg xmlns="http://www.w3.org/2000/svg" width="1600" height="1000" viewBox="0 0 1600 1000">
<title>底盤與六軸手臂的全身運動學示意</title>
<defs>
<marker id="a2879B9" markerWidth="14" markerHeight="14" refX="12" refY="7" orient="auto" markerUnits="userSpaceOnUse"><path d="M0 0 L14 7 L0 14 Z" fill="#2879B9"/></marker>
<marker id="a148579" markerWidth="14" markerHeight="14" refX="12" refY="7" orient="auto" markerUnits="userSpaceOnUse"><path d="M0 0 L14 7 L0 14 Z" fill="#148579"/></marker>
<marker id="aCB6B27" markerWidth="14" markerHeight="14" refX="12" refY="7" orient="auto" markerUnits="userSpaceOnUse"><path d="M0 0 L14 7 L0 14 Z" fill="#CB6B27"/></marker>
<marker id="a607387" markerWidth="14" markerHeight="14" refX="12" refY="7" orient="auto" markerUnits="userSpaceOnUse"><path d="M0 0 L14 7 L0 14 Z" fill="#607387"/></marker>
</defs>
<ellipse cx="652" cy="770" rx="287" ry="92" fill="#C2D6E8" stroke="#2879B9" stroke-width="3"/>
<rect x="365" y="678" width="574" height="94" rx="4" fill="#DCE9F4" stroke="#2879B9" stroke-width="2"/>
<ellipse cx="652" cy="678" rx="287" ry="92" fill="#EAF2F9" stroke="#2879B9" stroke-width="3"/>
<g transform="translate(402 739) rotate(-20)">
<rect x="-38" y="-26" width="76" height="52" rx="13" fill="#163451" stroke="none" stroke-width="2"/>
<polyline points="-24,-20 -24,20" fill="none" stroke="#8BA3BA" stroke-width="4" stroke-linecap="round" stroke-linejoin="round"/>
<polyline points="-8,-20 -8,20" fill="none" stroke="#8BA3BA" stroke-width="4" stroke-linecap="round" stroke-linejoin="round"/>
<polyline points="8,-20 8,20" fill="none" stroke="#8BA3BA" stroke-width="4" stroke-linecap="round" stroke-linejoin="round"/>
<polyline points="24,-20 24,20" fill="none" stroke="#8BA3BA" stroke-width="4" stroke-linecap="round" stroke-linejoin="round"/>
</g>
<g transform="translate(880 739) rotate(20)">
<rect x="-38" y="-26" width="76" height="52" rx="13" fill="#163451" stroke="none" stroke-width="2"/>
<polyline points="-24,-20 -24,20" fill="none" stroke="#8BA3BA" stroke-width="4" stroke-linecap="round" stroke-linejoin="round"/>
<polyline points="-8,-20 -8,20" fill="none" stroke="#8BA3BA" stroke-width="4" stroke-linecap="round" stroke-linejoin="round"/>
<polyline points="8,-20 8,20" fill="none" stroke="#8BA3BA" stroke-width="4" stroke-linecap="round" stroke-linejoin="round"/>
<polyline points="24,-20 24,20" fill="none" stroke="#8BA3BA" stroke-width="4" stroke-linecap="round" stroke-linejoin="round"/>
</g>
<g transform="translate(465 815) rotate(-20)">
<rect x="-38" y="-26" width="76" height="52" rx="13" fill="#163451" stroke="none" stroke-width="2"/>
<polyline points="-24,-20 -24,20" fill="none" stroke="#8BA3BA" stroke-width="4" stroke-linecap="round" stroke-linejoin="round"/>
<polyline points="-8,-20 -8,20" fill="none" stroke="#8BA3BA" stroke-width="4" stroke-linecap="round" stroke-linejoin="round"/>
<polyline points="8,-20 8,20" fill="none" stroke="#8BA3BA" stroke-width="4" stroke-linecap="round" stroke-linejoin="round"/>
<polyline points="24,-20 24,20" fill="none" stroke="#8BA3BA" stroke-width="4" stroke-linecap="round" stroke-linejoin="round"/>
</g>
<g transform="translate(836 815) rotate(20)">
<rect x="-38" y="-26" width="76" height="52" rx="13" fill="#163451" stroke="none" stroke-width="2"/>
<polyline points="-24,-20 -24,20" fill="none" stroke="#8BA3BA" stroke-width="4" stroke-linecap="round" stroke-linejoin="round"/>
<polyline points="-8,-20 -8,20" fill="none" stroke="#8BA3BA" stroke-width="4" stroke-linecap="round" stroke-linejoin="round"/>
<polyline points="8,-20 8,20" fill="none" stroke="#8BA3BA" stroke-width="4" stroke-linecap="round" stroke-linejoin="round"/>
<polyline points="24,-20 24,20" fill="none" stroke="#8BA3BA" stroke-width="4" stroke-linecap="round" stroke-linejoin="round"/>
</g>
<ellipse cx="652" cy="637" rx="70" ry="23" fill="#BDD7CD" stroke="#148579" stroke-width="3"/>
<rect x="582" y="587" width="140" height="50" rx="4" fill="#D5E8E0" stroke="#148579" stroke-width="2"/>
<polyline points="652,587 652,490 522,338 756,215 902,320 1050,320" fill="none" stroke="#BFD9CE" stroke-width="57" stroke-linecap="round" stroke-linejoin="round"/>
<polyline points="652,587 652,490 522,338 756,215 902,320 1050,320" fill="none" stroke="#148579" stroke-width="36" stroke-linecap="round" stroke-linejoin="round"/>
<circle cx="652" cy="587" r="23" fill="white" stroke="#148579" stroke-width="5"/>
<text x="565" y="602" font-family="Noto Sans CJK TC, sans-serif" font-size="28" font-weight="600" fill="#148579" text-anchor="start">J1</text>
<circle cx="652" cy="490" r="23" fill="white" stroke="#148579" stroke-width="5"/>
<text x="565" y="497" font-family="Noto Sans CJK TC, sans-serif" font-size="28" font-weight="600" fill="#148579" text-anchor="start">J2</text>
<circle cx="522" cy="338" r="23" fill="white" stroke="#148579" stroke-width="5"/>
<text x="449" y="323" font-family="Noto Sans CJK TC, sans-serif" font-size="28" font-weight="600" fill="#148579" text-anchor="start">J3</text>
<circle cx="756" cy="215" r="23" fill="white" stroke="#148579" stroke-width="5"/>
<text x="740" y="163" font-family="Noto Sans CJK TC, sans-serif" font-size="28" font-weight="600" fill="#148579" text-anchor="start">J4</text>
<circle cx="902" cy="320" r="23" fill="white" stroke="#148579" stroke-width="5"/>
<text x="892" y="272" font-family="Noto Sans CJK TC, sans-serif" font-size="28" font-weight="600" fill="#148579" text-anchor="start">J5</text>
<circle cx="1050" cy="320" r="23" fill="white" stroke="#148579" stroke-width="5"/>
<text x="1038" y="272" font-family="Noto Sans CJK TC, sans-serif" font-size="28" font-weight="600" fill="#148579" text-anchor="start">J6</text>
<rect x="1080" y="285" width="58" height="70" rx="8" fill="#163451" stroke="none" stroke-width="2"/>
<polyline points="1138,294 1198,294 1198,311" fill="none" stroke="#163451" stroke-width="11" stroke-linecap="round" stroke-linejoin="round"/>
<polyline points="1138,346 1198,346 1198,329" fill="none" stroke="#163451" stroke-width="11" stroke-linecap="round" stroke-linejoin="round"/>
<circle cx="1200" cy="320" r="7" fill="#CB6B27" stroke="#CB6B27" stroke-width="1"/>
<polyline points="1200,320 1294,320" fill="none" stroke="#CB6B27" stroke-width="4" stroke-linecap="round" stroke-linejoin="round" marker-end="url(#aCB6B27)"/>
<polyline points="1200,320 1200,226" fill="none" stroke="#148579" stroke-width="4" stroke-linecap="round" stroke-linejoin="round" marker-end="url(#a148579)"/>
<text x="1310" y="330" font-family="Noto Sans CJK TC, sans-serif" font-size="28" font-weight="600" fill="#CB6B27" text-anchor="start">zₜ</text>
<text x="1215" y="238" font-family="Noto Sans CJK TC, sans-serif" font-size="28" font-weight="600" fill="#148579" text-anchor="start">xₜ</text>
<text x="1231" y="404" font-family="Noto Sans CJK TC, sans-serif" font-size="35" font-weight="600" fill="#CB6B27" text-anchor="start">TCP／夾爪</text>
<polyline points="1208,390 1200,332" fill="none" stroke="#CB6B27" stroke-width="2" stroke-linecap="round" stroke-linejoin="round"/>
<rect x="959" y="261" width="47" height="27" rx="5" fill="#7990A5" stroke="#163451" stroke-width="2"/>
<circle cx="974" cy="274" r="6" fill="#E3F1FC" stroke="#163451" stroke-width="1"/>
<text x="1020" y="162" font-family="Noto Sans CJK TC, sans-serif" font-size="33" font-weight="600" fill="#607387" text-anchor="start">腕部相機</text>
<polyline points="1057,180 1040,228 984,260" fill="none" stroke="#607387" stroke-width="2" stroke-linecap="round" stroke-linejoin="round"/>
<text x="210" y="216" font-family="Noto Sans CJK TC, sans-serif" font-size="39" font-weight="600" fill="#148579" text-anchor="start">Lite 6・6 DOF</text>
<polyline points="330,238 392,274 491,327" fill="none" stroke="#148579" stroke-width="2" stroke-linecap="round" stroke-linejoin="round"/>
<text x="110" y="667" font-family="Noto Sans CJK TC, sans-serif" font-size="39" font-weight="600" fill="#2879B9" text-anchor="start">全向底盤</text>
<text x="110" y="714" font-family="Noto Sans CJK TC, sans-serif" font-size="31" font-weight="600" fill="#2879B9" text-anchor="start">3 DOF</text>
<polyline points="294,681 355,693" fill="none" stroke="#2879B9" stroke-width="2" stroke-linecap="round" stroke-linejoin="round"/>
<polyline points="1105,813 1328,813" fill="none" stroke="#2879B9" stroke-width="5" stroke-linecap="round" stroke-linejoin="round" marker-end="url(#a2879B9)"/>
<polyline points="1105,813 1026,748" fill="none" stroke="#2879B9" stroke-width="5" stroke-linecap="round" stroke-linejoin="round" marker-end="url(#a2879B9)"/>
<text x="1347" y="824" font-family="Noto Sans CJK TC, sans-serif" font-size="31" font-weight="600" fill="#2879B9" text-anchor="start">x</text>
<text x="996" y="746" font-family="Noto Sans CJK TC, sans-serif" font-size="31" font-weight="600" fill="#2879B9" text-anchor="start">y</text>
<path d="M 1141 872 C 1250 906 1375 850 1313 757" fill="none" stroke="#2879B9" stroke-width="4" stroke-linecap="round" stroke-linejoin="round" marker-end="url(#a2879B9)"/>
<text x="1350" y="881" font-family="Noto Sans CJK TC, sans-serif" font-size="33" font-weight="600" fill="#2879B9" text-anchor="start">θ</text>
<text x="650" y="944" font-family="Noto Sans CJK TC, sans-serif" font-size="37" font-weight="600" fill="#163451" text-anchor="middle">q = [ x, y, θ, q₁, …, q₆ ]ᵀ</text>
<text x="1540" y="975" font-family="Noto Sans CJK TC, sans-serif" font-size="23" font-weight="400" fill="#607387" text-anchor="end">幾何示意・不依比例</text>
</svg>