<svg xmlns="http://www.w3.org/2000/svg" width="1600" height="1050" viewBox="0 0 1600 1050">
<title>底盤與手臂協同預抓取的任務幾何示意</title>
<defs>
<marker id="a2879B9" markerWidth="14" markerHeight="14" refX="12" refY="7" orient="auto" markerUnits="userSpaceOnUse"><path d="M0 0 L14 7 L0 14 Z" fill="#2879B9"/></marker>
<marker id="a148579" markerWidth="14" markerHeight="14" refX="12" refY="7" orient="auto" markerUnits="userSpaceOnUse"><path d="M0 0 L14 7 L0 14 Z" fill="#148579"/></marker>
<marker id="aCB6B27" markerWidth="14" markerHeight="14" refX="12" refY="7" orient="auto" markerUnits="userSpaceOnUse"><path d="M0 0 L14 7 L0 14 Z" fill="#CB6B27"/></marker>
<marker id="a607387" markerWidth="14" markerHeight="14" refX="12" refY="7" orient="auto" markerUnits="userSpaceOnUse"><path d="M0 0 L14 7 L0 14 Z" fill="#607387"/></marker>
</defs>
<rect x="1048.3" y="247.5" width="258.0" height="645.0" rx="6" fill="#FBEADC" stroke="#CB6B27" stroke-width="2"/>
<rect x="503.275" y="711.9" width="103.2" height="129.0" rx="6" fill="#FBEADC" stroke="#CB6B27" stroke-width="2"/>
<text x="1390" y="573" font-family="Noto Sans CJK TC, sans-serif" font-size="35" font-weight="600" fill="#CB6B27" text-anchor="start">目標物</text>
<text x="511" y="946" font-family="Noto Sans CJK TC, sans-serif" font-size="33" font-weight="600" fill="#CB6B27" text-anchor="start">底盤障礙物</text>
<polyline points="620,906 591,850" fill="none" stroke="#CB6B27" stroke-width="2" stroke-linecap="round" stroke-linejoin="round"/>
<circle cx="248.50000000000006" cy="570" r="193.5" fill="#F4F7FA" stroke="#607387" stroke-width="3" stroke-dasharray="12 10"/>
<circle cx="248.50000000000006" cy="570" r="7" fill="#607387" stroke="#607387" stroke-width="1"/>
<text x="248.50000000000006" y="842" font-family="Noto Sans CJK TC, sans-serif" font-size="33" font-weight="600" fill="#607387" text-anchor="middle">起始底盤</text>
<path d="M 248.50000000000006 570 C 273.50000000000006 384 448.25 302.0 588.25 419.0" fill="none" stroke="#2879B9" stroke-width="5" stroke-linecap="round" stroke-linejoin="round" stroke-dasharray="12 10" marker-end="url(#a2879B9)"/>
<text x="225" y="213" font-family="Noto Sans CJK TC, sans-serif" font-size="34" font-weight="600" fill="#2879B9" text-anchor="start">底盤移動</text>
<circle cx="603.25" cy="441.0" r="193.5" fill="#E7F0F8" stroke="#2879B9" stroke-width="4"/>
<g transform="translate(789.01 441.0) rotate(0)">
<rect x="-20" y="-33" width="40" height="66" rx="9" fill="#163451" stroke="none" stroke-width="2"/>
</g>
<g transform="translate(603.25 626.76) rotate(90)">
<rect x="-20" y="-33" width="40" height="66" rx="9" fill="#163451" stroke="none" stroke-width="2"/>
</g>
<g transform="translate(417.49 441.0) rotate(180)">
<rect x="-20" y="-33" width="40" height="66" rx="9" fill="#163451" stroke="none" stroke-width="2"/>
</g>
<g transform="translate(603.25 255.24) rotate(270)">
<rect x="-20" y="-33" width="40" height="66" rx="9" fill="#163451" stroke="none" stroke-width="2"/>
</g>
<polyline points="658.25,441.0 703.25,368.0 811.25,419.0 844.5,570" fill="none" stroke="#BFD9CE" stroke-width="32" stroke-linecap="round" stroke-linejoin="round"/>
<polyline points="658.25,441.0 703.25,368.0 811.25,419.0 844.5,570" fill="none" stroke="#148579" stroke-width="22" stroke-linecap="round" stroke-linejoin="round"/>
<circle cx="658.25" cy="441.0" r="13" fill="white" stroke="#148579" stroke-width="3"/>
<circle cx="703.25" cy="368.0" r="13" fill="white" stroke="#148579" stroke-width="3"/>
<circle cx="811.25" cy="419.0" r="13" fill="white" stroke="#148579" stroke-width="3"/>
<circle cx="844.5" cy="570" r="13" fill="white" stroke="#148579" stroke-width="3"/>
<polyline points="856.5,550 896.5,550" fill="none" stroke="#163451" stroke-width="7" stroke-linecap="round" stroke-linejoin="round"/>
<polyline points="856.5,590 896.5,590" fill="none" stroke="#163451" stroke-width="7" stroke-linecap="round" stroke-linejoin="round"/>
<circle cx="893.5" cy="570" r="8" fill="#CB6B27" stroke="#CB6B27" stroke-width="1"/>
<polyline points="902.5,570 986.5,570" fill="none" stroke="#CB6B27" stroke-width="4" stroke-linecap="round" stroke-linejoin="round" marker-end="url(#aCB6B27)"/>
<text x="1030" y="693" font-family="Noto Sans CJK TC, sans-serif" font-size="33" font-weight="600" fill="#CB6B27" text-anchor="middle">預抓取 TCP</text>
<polyline points="980,663 903.5,602" fill="none" stroke="#CB6B27" stroke-width="2" stroke-linecap="round" stroke-linejoin="round"/>
<text x="620" y="172" font-family="Noto Sans CJK TC, sans-serif" font-size="34" font-weight="600" fill="#148579" text-anchor="start">手臂構形調整</text>
<polyline points="767,198 786,264 811.25,399.0" fill="none" stroke="#148579" stroke-width="2" stroke-linecap="round" stroke-linejoin="round"/>
<text x="887" y="806" font-family="Noto Sans CJK TC, sans-serif" font-size="31" font-weight="600" fill="#CB6B27" text-anchor="start">預抓取距離</text>
<polyline points="893.5,736 1048.3,736" fill="none" stroke="#CB6B27" stroke-width="3" stroke-linecap="round" stroke-linejoin="round"/>
<polyline points="893.5,724 893.5,748" fill="none" stroke="#CB6B27" stroke-width="3" stroke-linecap="round" stroke-linejoin="round"/>
<polyline points="1048.3,724 1048.3,748" fill="none" stroke="#CB6B27" stroke-width="3" stroke-linecap="round" stroke-linejoin="round"/>
<text x="616" y="88" font-family="Noto Sans CJK TC, sans-serif" font-size="34" font-weight="600" fill="#2879B9" text-anchor="middle">可行底盤位姿</text>
<polyline points="616,112 616,232.5" fill="none" stroke="#2879B9" stroke-width="2" stroke-linecap="round" stroke-linejoin="round"/>
<polyline points="1390,896 1490,896" fill="none" stroke="#2879B9" stroke-width="3" stroke-linecap="round" stroke-linejoin="round" marker-end="url(#a2879B9)"/>
<polyline points="1390,896 1390,805" fill="none" stroke="#2879B9" stroke-width="3" stroke-linecap="round" stroke-linejoin="round" marker-end="url(#a2879B9)"/>
<text x="1504" y="906" font-family="Noto Sans CJK TC, sans-serif" font-size="27" font-weight="600" fill="#2879B9" text-anchor="start">x</text>
<text x="1375" y="787" font-family="Noto Sans CJK TC, sans-serif" font-size="27" font-weight="600" fill="#2879B9" text-anchor="start">y</text>
<text x="1540" y="1013" font-family="Noto Sans CJK TC, sans-serif" font-size="23" font-weight="400" fill="#607387" text-anchor="end">俯視任務示意・虛線非實測軌跡</text>
</svg>