<svg xmlns="http://www.w3.org/2000/svg" width="1920" height="1080" viewBox="0 0 1920 1080">
<title>失敗趟次的定位與修正：NODATA 的狀態分類</title>
<desc>自由空間下距離資料全為 NODATA，被讀成「資料未知」而套用退化速度上限</desc>
<defs>
<marker id="a2879B9" markerWidth="12" markerHeight="12" refX="10" refY="6" orient="auto" markerUnits="userSpaceOnUse"><path d="M0 0 L12 6 L0 12 Z" fill="#2879B9"/></marker>
<marker id="a148579" markerWidth="12" markerHeight="12" refX="10" refY="6" orient="auto" markerUnits="userSpaceOnUse"><path d="M0 0 L12 6 L0 12 Z" fill="#148579"/></marker>
<marker id="aCB6B27" markerWidth="12" markerHeight="12" refX="10" refY="6" orient="auto" markerUnits="userSpaceOnUse"><path d="M0 0 L12 6 L0 12 Z" fill="#CB6B27"/></marker>
<marker id="a607387" markerWidth="12" markerHeight="12" refX="10" refY="6" orient="auto" markerUnits="userSpaceOnUse"><path d="M0 0 L12 6 L0 12 Z" fill="#607387"/></marker>
</defs>
<rect x="0" y="0" width="1920" height="1080" rx="0" fill="white" stroke="none" stroke-width="2"/>
<rect x="0" y="0" width="14" height="1080" rx="0" fill="#163451" stroke="none" stroke-width="2"/>
<text x="64" y="55" font-family="Noto Sans CJK TC, sans-serif" font-size="22" font-weight="400" fill="#607387" text-anchor="start">第五次進度報告  /  本次進度與成果</text>
<text x="1856" y="55" font-family="Noto Sans CJK TC, sans-serif" font-size="24" font-weight="700" fill="#148579" text-anchor="end">圖 14</text>
<text x="64" y="122" font-family="Noto Sans CJK TC, sans-serif" font-size="47" font-weight="700" fill="#163451" text-anchor="start">失敗趟次的定位與修正：NODATA 的狀態分類</text>
<text x="64" y="174" font-family="Noto Sans CJK TC, sans-serif" font-size="27" font-weight="400" fill="#607387" text-anchor="start">自由空間下距離資料全為 NODATA，被讀成「資料未知」而套用退化速度上限</text>
<rect x="110" y="300" width="800" height="470" rx="16" fill="white" stroke="#DCE5EE" stroke-width="2"/>
<text x="110" y="276" font-family="Noto Sans CJK TC, sans-serif" font-size="30" font-weight="700" fill="#163451" text-anchor="start">兩趟的 TCP 位置誤差</text>
<polyline points="110,770.0 910,770.0" fill="none" stroke="#DCE5EE" stroke-width="2" stroke-linecap="round" stroke-linejoin="round"/>
<text x="96" y="779.0" font-family="Noto Sans CJK TC, sans-serif" font-size="22" font-weight="400" fill="#607387" text-anchor="end">0</text>
<polyline points="110,652.5 910,652.5" fill="none" stroke="#DCE5EE" stroke-width="2" stroke-linecap="round" stroke-linejoin="round"/>
<text x="96" y="661.5" font-family="Noto Sans CJK TC, sans-serif" font-size="22" font-weight="400" fill="#607387" text-anchor="end">325</text>
<polyline points="110,535.0 910,535.0" fill="none" stroke="#DCE5EE" stroke-width="2" stroke-linecap="round" stroke-linejoin="round"/>
<text x="96" y="544.0" font-family="Noto Sans CJK TC, sans-serif" font-size="22" font-weight="400" fill="#607387" text-anchor="end">650</text>
<polyline points="110,417.5 910,417.5" fill="none" stroke="#DCE5EE" stroke-width="2" stroke-linecap="round" stroke-linejoin="round"/>
<text x="96" y="426.5" font-family="Noto Sans CJK TC, sans-serif" font-size="22" font-weight="400" fill="#607387" text-anchor="end">975</text>
<polyline points="110,300.0 910,300.0" fill="none" stroke="#DCE5EE" stroke-width="2" stroke-linecap="round" stroke-linejoin="round"/>
<text x="96" y="309.0" font-family="Noto Sans CJK TC, sans-serif" font-size="22" font-weight="400" fill="#607387" text-anchor="end">1300</text>
<text x="116" y="288" font-family="Noto Sans CJK TC, sans-serif" font-size="22" font-weight="400" fill="#607387" text-anchor="start">mm</text>
<text x="110.0" y="804" font-family="Noto Sans CJK TC, sans-serif" font-size="22" font-weight="400" fill="#607387" text-anchor="start">0 s</text>
<text x="376.6666666666667" y="804" font-family="Noto Sans CJK TC, sans-serif" font-size="22" font-weight="400" fill="#607387" text-anchor="start">20 s</text>
<text x="643.3333333333334" y="804" font-family="Noto Sans CJK TC, sans-serif" font-size="22" font-weight="400" fill="#607387" text-anchor="start">40 s</text>
<text x="910.0" y="804" font-family="Noto Sans CJK TC, sans-serif" font-size="22" font-weight="400" fill="#607387" text-anchor="start">60 s</text>
<polyline points="110.4,704.0311864841782 111.06666666666666,704.0107205035837 111.73333333333333,703.9986592194907 112.4,703.9914630284925 113.06666666666666,703.9868023474272 113.73333333333333,703.9839690094185 114.4,703.9823468956237 115.06666666666666,703.9814331503195 115.73333333333333,703.9807248107953 116.4,703.9807248107953 117.06666666666666,703.9807248107953 117.73333333333333,703.9807248107953 118.4,703.9807248107953 119.06666666666666,703.9807248107953 119.73333333333333,703.9807248107953 120.4,703.9807248107953 121.06666666666666,703.9807248107953 121.73333333333333,703.9807248107953 122.4,703.9807248107953 123.06666666666666,703.9807248107953 123.73333333333333,703.9807248107953 124.4,703.9807248107953 125.06666666666666,703.9807248107953 125.73333333333333,703.9807248107953 126.4,703.9807248107953 127.06666666666666,703.9807248107953 127.73333333333333,703.9807248107953 128.4,703.9807248107953 129.06666666666666,703.9807248107953 129.73333333333335,703.9807248107953 130.4,703.9751499910757 131.06666666666666,703.9547686227262 131.73333333333332,703.9415834062822 132.4,703.9335624514401 133.06666666666666,703.928283512382 133.73333333333335,703.9249244711377 134.4,703.9224794735181 135.06666666666666,703.9202400474358 135.73333333333332,703.9190065267468 136.4,703.9176811890408 137.06666666666666,703.9166532077911 137.73333333333332,703.9156251386911 138.4,703.9145970183359 139.06666666666666,703.9132714921606 139.73333333333335,703.9127462814021 140.4,703.9117180080517 141.06666666666666,703.9108953391835 141.73333333333332,703.9095696261876 142.4,703.9087468802311 143.06666666666666,703.9080157148888 143.73333333333335,703.9068955496667 144.4,703.9058669817015 145.06666666666666,703.9050440138691 145.73333333333335,703.904221049362 146.4,703.9031923351484 147.06666666666666,703.9023692186847 147.73333333333335,703.9015461253249 148.4,703.9005172648814 149.06666666666666,703.8996940878003 149.73333333333335,703.8986650376786 150.4,703.8978417709519 151.06666666666666,703.8971098858478 151.73333333333335,703.8959892489538 152.4,703.8951658534114 153.06666666666666,703.8941365218229 153.73333333333332,703.8933130366536 154.4,703.8922837309485 155.06666666666666,703.8917572712473 155.73333333333335,703.8904306074405 156.4,703.8896069489692 157.06666666666666,703.8890803286879 157.73333333333335,703.8877535307748 158.4,703.8869297435359 159.06666666666666,703.8861971389841 159.73333333333335,703.8850760306909 160.4,703.8840462798964 161.06666666666666,703.883222112814 161.73333333333335,703.8823981072403 162.4,703.8816654214353 163.06666666666666,703.8808411021564 163.73333333333335,703.8800169641529 164.4,703.8786897175002 165.06666666666666,703.878162448796 165.73333333333335,703.8773381820824 166.4,703.8763077284735 167.06666666666666,703.8754833722064 167.73333333333335,703.8741558983033 168.4,703.8736283573896 169.06666666666666,703.8728038724391 169.73333333333335,703.8714762645471 170.4,703.8706514002408 171.06666666666666,703.8699180203578 171.73333333333332,703.8690933622704 172.4,703.8677652546951 173.06666666666666,703.8669405107933 173.73333333333335,703.8664128703078 174.4,703.8653817469475 175.06666666666666,703.8645568707044 175.73333333333335,703.8635259847877 176.4,703.8627006662609 177.06666666666666,703.8618756613982 177.73333333333335,703.860547511999 178.39999999999998,703.860019162641 179.06666666666666,703.8586909200903 179.73333333333335,703.8581628513631 180.4,703.8568341233929 181.06666666666666,703.8560088597105 181.73333333333332,703.8551835569217 182.39999999999998,703.8541517687734 183.06666666666666,703.8533263765196 183.73333333333335,703.8522944730896 184.4,703.8517660681265 185.06666666666666,703.8504374182594 185.73333333333335,703.8496114015153 186.4,703.848579726953 187.06666666666666,703.8477540722715 187.73333333333335,703.8467218309509 188.4,703.8461931385564 189.06666666666666,703.8448642153319 189.73333333333335,703.8440378967265 190.4,703.8435090637676 191.06666666666666,703.8421800067641 191.73333333333335,703.8416505712452 192.39999999999998,703.8405275387935 193.06666666666666,703.8394953756477 193.73333333333335,703.838668760581 194.39999999999998,703.8379335106821 195.06666666666666,703.8368103220341 195.73333333333335,703.8362805659808 196.4,703.835248151028 197.06666666666666,703.8341242819722 197.73333333333335,703.8333887645217 198.4,703.8322653784347 199.06666666666666,703.8317353506037 199.73333333333335,703.8307026885308 200.4,703.8298761645386 201.06666666666666,703.8288428035698 201.73333333333335,703.8280161902161 202.39999999999998,703.8269833313716 203.06666666666666,703.8258590496132 203.73333333333335,703.825329269629 204.4,703.823999311647 205.06666666666666,703.823468796973 205.73333333333332,703.8221387460214 206.4,703.8213111784863 207.06666666666666,703.8202779759437 207.73333333333335,703.8194509758039 208.4,703.8184170014307 209.06666666666666,703.8175899119705 209.73333333333335,703.8165565127506 210.4,703.8160255600488 211.06666666666666,703.8149014259185 211.73333333333335,703.8138678810612 212.4,703.8128335693132 213.06666666666666,703.8120062178523 213.73333333333335,703.8109717910355 214.4,703.810144350284 215.06666666666666,703.8091105518992 215.73333333333332,703.8082822783737 216.4,703.8077515885257 217.06666666666666,703.8064207653458 217.73333333333332,703.8055923438101 218.4,703.8048551648217 219.06666666666666,703.8040274194309 219.73333333333335,703.8031988461865 220.39999999999998,703.8018677966345 221.06666666666666,703.8013367771281 221.73333333333335,703.8000048320775 222.39999999999998,703.7991768728849 223.06666666666666,703.7983488746868 223.73333333333335,703.7975200092243 224.39999999999998,703.7964855274065 225.06666666666666,703.795657400972 225.73333333333335,703.7946219759095 226.40000000000003,703.7940905782006 227.06666666666666,703.7932623198324 227.73333333333335,703.7922267249313 228.40000000000003,703.7913983773493 229.06666666666666,703.7902731886088 229.73333333333335,703.7895342306988 230.39999999999998,703.7882025082673 231.06666666666666,703.7873739919054 231.73333333333335,703.7865445294731 232.39999999999998,703.7855094591218 233.06666666666666,703.7849775916872 233.73333333333332,703.7841479776657 234.4,703.7828159885072 235.06666666666666,703.7817807218007 235.73333333333332,703.780951904823 236.4,703.7804188531442 237.06666666666666,703.7790866843679 237.73333333333335,703.7782567730678 238.4,703.7772212598553 239.06666666666666,703.7763922255874 239.73333333333335,703.7753556313023 240.39999999999998,703.7745265078875 241.06666666666666,703.7736973455106 241.73333333333335,703.7726605861719 242.4,703.771831334659 243.06666666666666,703.7707954798234 243.73333333333332,703.770262856253 244.4,703.7694324476643 245.06666666666666,703.7683964428617 245.73333333333332,703.7675669763404 246.4,703.766439724626 247.06666666666663,703.765403579157 247.73333333333332,703.7648706753033 248.4,703.7638333594891 249.06666666666666,703.7630036758117 249.73333333333332,703.7618772782639 250.39999999999998,703.7611364724123 251.06666666666666,703.760009994139 251.73333333333332,703.7589724032033 252.4,703.7581425061314 253.06666666666666,703.757105918218 253.73333333333335,703.7562748142586 254.4,703.7554447891838 255.06666666666666,703.7547046975164 255.73333333333335,703.7535768044004 256.4,703.7525399702653 257.06666666666666,703.7517097729776 257.73333333333335,703.7506716806786 258.40000000000003,703.7498413943432 259.06666666666666,703.7493076864031 259.73333333333335,703.7482694245844 260.4,703.7471423976289 261.06666666666666,703.7466085496544 261.73333333333335,703.7452735224035 262.4,703.7444429801736 263.06666666666666,703.743405659653 263.73333333333335,703.7425738121825 264.4,703.7415363907247 265.0666666666667,703.7407044404687 265.73333333333335,703.7398736813077 266.4,703.738836114723 267.06666666666666,703.738301840511 267.73333333333335,703.7369663493885 268.4,703.7361354181373 269.06666666666666,703.7355997286953 269.73333333333335,703.7342653601461 270.4,703.7332274967391 271.06666666666666,703.732395098508 271.73333333333335,703.7316536725062 272.4,703.7305259419293 273.06666666666666,703.7299899270224 273.73333333333335,703.7286552868186 274.4,703.7278239666924 275.06666666666666,703.7267844281121 275.73333333333335,703.7259530190341 276.4,703.7249147138496 277.06666666666666,703.7243783735473 277.73333333333335,703.723339962867 278.4,703.7225083780876 279.06666666666666,703.7214684988705 279.73333333333335,703.7201334484904 280.4,703.719598218702 281.0666666666667,703.718468588083 281.73333333333335,703.7177263614312 282.4,703.7165980435194 283.0666666666667,703.715854300666 283.73333333333335,703.7147259022205 284.4,703.7138939325309 285.0666666666667,703.7128535574525 285.73333333333335,703.7120214988669 286.4,703.7109824555629 287.06666666666666,703.7101488617584 287.73333333333335,703.7091097176697 288.4,703.7082774872115 289.06666666666666,703.7072367763581 289.73333333333335,703.7064044570263 290.4,703.7053636316454 291.06666666666666,703.7048276417497 291.73333333333335,703.7039951909913 292.4,703.7026577864926 293.06666666666666,703.7018252506011 293.73333333333335,703.7007856652328 294.4,703.6999515214395 295.06666666666666,703.6989118353345 295.73333333333335,703.6980791276503 296.4,703.6973341869121 297.0666666666666,703.6965013866725 297.73333333333335,703.6953721702531 298.4,703.6943306802369 299.06666666666666,703.6934977560743 299.73333333333335,703.6927540939272 300.4,703.6919194992186 301.06666666666666,703.690879367396 301.73333333333335,703.6897499155557 302.4,703.688708090044 303.06666666666666,703.6876678114807 303.73333333333335,703.6868345826996 304.4,703.6859996919283 305.06666666666666,703.6849592686019 305.73333333333335,703.6841259122286 306.4,703.6830837513057 307.06666666666666,703.6822503061553 307.73333333333335,703.6817131371947 308.40000000000003,703.6803744969081 309.06666666666666,703.679540924192 309.73333333333335,703.6785001607166 310.4,703.6776648230297 311.0666666666667,703.6768311227637 311.73333333333335,703.6757902145871 312.4,703.6749547297219 313.0666666666667,703.6744171843159 313.73333333333335,703.6730798490622 314.4,703.672037024166 315.0666666666667,703.6712030635697 315.73333333333335,703.670663594696 316.4,703.669326075004 317.0666666666666,703.6684919869058 317.73333333333335,703.6674506381363 318.4,703.6667037260214 319.0666666666666,703.6655732572195 319.73333333333335,703.664738997589 320.4,703.6636956732804 321.0666666666666,703.6628613249502 321.73333333333335,703.6618196803485 322.4,703.660983449314 323.0666666666667,703.6599417041579 323.73333333333335,703.6594033996809 324.4,703.6585670178393 325.06666666666666,703.6572289164999 325.73333333333335,703.6566904724774 326.4,703.6558539435802 327.0666666666667,703.6545157097963 327.7333333333333,703.6536809351279 328.4,703.6528442629275 329.06666666666666,703.6518020840986 329.73333333333335,703.6512633610291 330.4,703.650221082921 331.06666666666666,703.6488807002296 331.73333333333335,703.6480456655036 332.4,703.6472086940148 333.06666666666666,703.6466697344217 333.73333333333335,703.6453310574756 334.4,703.6444958566458 335.06666666666666,703.6434513200746 335.73333333333335,703.642616030626 336.40000000000003,703.6415733171098 337.06666666666666,703.6407360017926 337.7333333333333,703.6399005850061 338.4,703.6388577270375 339.06666666666666,703.638020264776 339.73333333333335,703.6371847206674 340.40000000000003,703.6364378310997 341.06666666666666,703.6353041090763 341.7333333333333,703.6344684376613 342.4,703.6334252908432 343.06666666666666,703.6325875347447 343.73333333333335,703.6315442875053 344.4,703.6310045334175 345.06666666666666,703.6301666266886 345.73333333333335,703.6288271502092 346.4,703.6279911802583 347.06666666666666,703.6272437659278 347.73333333333335,703.6264056624809 348.4,703.625066007864 349.06666666666666,703.6242298666967 349.73333333333335,703.6233916201368 350.40000000000003,703.6223478892572 351.0666666666666,703.6215116208576 351.73333333333335,703.620465709188 352.4,703.6199253914365 353.06666666666666,703.6188814610456 353.73333333333335,703.6180429118399 354.4,703.6169103969272 355.0666666666666,703.6163698974294 355.73333333333335,703.6150297601333 356.4,703.6144870382304 357.0666666666667,703.6131468089948 357.73333333333335,703.612102544165 358.4,703.6112636553098 359.0666666666667,703.6107228710185 359.73333333333335,703.6096762925696 360.4,703.6088394179242 361.0666666666666,703.6074989187882 361.73333333333335,703.6066619652772 362.4,703.6058227829232 363.0666666666667,703.6047781293072 363.73333333333335,703.6039410486644 364.4,703.6031900554253 365.0666666666666,703.6020569217663 365.73333333333335,703.601012073455 366.4,703.6001725924224 367.06666666666666,703.5994235916116 367.73333333333335,703.5982880606497 368.40000000000003,703.5975389511782 369.06666666666666,703.5964055832574 369.73333333333335,703.5953604400318 370.40000000000003,703.5948165876324 371.06666666666666,703.5934754169241 371.73333333333335,703.5926378174036 372.40000000000003,703.591797891113 373.0666666666667,703.591048413962 373.73333333333335,703.590210683657 374.4,703.5888669872812 375.06666666666666,703.5880291723074 375.73333333333335,703.5869835901414 376.40000000000003,703.5861433653533 377.0666666666667,703.5853054233544 377.7333333333333,703.5842596971027 378.4,703.5837152034904 379.06666666666666,703.5823734992713 379.73333333333335,703.5818312557707 380.40000000000003,703.5804870991716 381.06666666666666,703.5796488979198 381.73333333333335,703.5786028769846 382.4,703.5777622072081 383.06666666666666,703.5769238789791 383.73333333333335,703.5761735581965 384.4,703.5751249325237 385.06666666666666,703.5739906325736 385.73333333333335,703.5734479655682 386.40000000000003,703.57210334894 387.06666666666666,703.5712647615564 387.7333333333333,703.5702183020238 388.4,703.56937718742 389.06666666666666,703.5683306277605 389.73333333333335,703.5674918696012 390.40000000000003,703.5664427513555 391.06666666666666,703.5658997033141 391.7333333333333,703.5645571508603 392.4,703.5637157380487 393.06666666666666,703.562668883925 393.73333333333335,703.561829866721 394.4,703.560988307451 395.06666666666666,703.5602370826247 395.73333333333335,703.5591021653247 396.4,703.5580525500221 397.06666666666666,703.5575090787391 397.7333333333333,703.5561661253291 398.4,703.5553242679598 399.06666666666666,703.5544849087513 399.73333333333335,703.5534375725383 400.40000000000003,703.5525955687632 401.0666666666666,703.5515481325014 401.7333333333333,703.5507086026473 402.4,703.5499542179249 403.06666666666666,703.549114596088 403.73333333333335,703.5477712419012 404.4,703.5469315414304 405.0666666666666,703.5458812096397 405.7333333333333,703.4735584856512 406.4,703.1349651126063 407.06666666666666,702.8207539842398 407.7333333333333,702.5209976160727 408.4,702.2286561726786 409.06666666666666,701.9407981167735 409.7333333333333,701.6546730379677 410.4,701.3690631044975 411.06666666666666,701.0833174420628 411.73333333333335,700.7967299810083 412.4,700.5089930204647 413.06666666666666,700.2202078559158 413.73333333333335,699.9304091285564 414.4,699.6386630663443 415.06666666666666,699.3462434597926 415.73333333333335,699.0519296791656 416.4,698.7564901436168 417.06666666666666,698.4599532899916 417.73333333333335,698.1618732788676 418.40000000000003,697.8627466070782 419.06666666666666,697.5620903171109 419.73333333333335,697.2607108554871 420.40000000000003,696.9576093321846 421.06666666666666,696.6538303570901 421.73333333333335,696.3486180367479 422.40000000000003,696.0425081320174 423.0666666666667,695.7350305217765 423.73333333333335,695.4267015746896 424.4,695.1172925169683 425.06666666666666,694.8068255492955 425.73333333333335,694.4948081033438 426.40000000000003,694.1820254811335 427.0666666666667,693.8687558637196 427.7333333333333,693.5539955157735 428.4,693.238530276523 429.06666666666666,692.9221215875937 429.73333333333335,692.6045345483861 430.40000000000003,692.286298982158 431.06666666666666,691.9669182913733 431.73333333333335,691.6469257496506 432.4,691.326079847691 433.06666666666666,691.0036046854069 433.73333333333335,690.6776901453609 434.4,690.3483152436511 435.06666666666666,690.0144237553675 435.73333333333335,689.6754664183469 436.40000000000003,689.331969060089 437.06666666666666,688.9833735114154 437.7333333333333,688.6299333241215 438.4,688.2714003639362 439.06666666666666,687.9087822433281 439.73333333333335,687.5410059314765 440.40000000000003,687.1686543122428 441.06666666666666,686.7924607247604 441.7333333333333,686.4119066091936 442.4,686.0277813315245 443.06666666666666,685.6392870479395 443.73333333333335,685.2467505843728 444.4,684.850631393551 445.06666666666666,684.4512057906043 445.73333333333335,684.0479655244275 446.4,683.6414192279062 447.06666666666666,683.2319141116236 447.7333333333333,682.8191114818952 448.4,682.4030741110888 449.06666666666666,681.9838129301926 449.73333333333335,681.5626308837755 450.40000000000003,681.1382319751294 451.0666666666666,680.7111334285802 451.7333333333333,680.2814151594505 452.4,679.8492252051697 453.06666666666666,679.4147240825985 453.73333333333335,678.9778413146063 454.4,678.5385917649756 455.0666666666666,678.0970600399405 455.7333333333333,677.6536830986125 456.4,677.2077533888385 457.06666666666666,676.760079297132 457.7333333333333,676.3103828935045 458.4,675.8589670722229 459.06666666666666,675.4052472437282 459.7333333333333,674.9501277472802 460.4,674.4930230462401 461.06666666666666,674.034247297804 461.73333333333335,673.573805152839 462.4,673.1120138422689 463.06666666666666,672.6482774209687 463.73333333333335,672.1829099543336 464.4,671.7162301139257 465.06666666666666,671.2482459776501 465.73333333333335,670.7786629091729 466.4,670.307493398674 467.06666666666666,669.8353617077412 467.73333333333335,669.361357408103 468.40000000000003,668.8866029074389 469.06666666666666,668.4101179110536 469.73333333333335,667.9325943367271 470.40000000000003,667.4539777904096 471.06666666666666,666.9740346735421 471.73333333333335,666.4928973543753 472.40000000000003,666.0108890637132 473.0666666666667,665.527399858562 473.73333333333335,665.0430573397749 474.4,664.5575653760154 475.06666666666666,664.0711115293634 475.73333333333335,663.5836565047513 476.40000000000003,663.0952605245895 477.0666666666667,662.6057514427646 477.7333333333333,662.1154531998592 478.4,661.6240635391376 479.06666666666666,661.1315915591528 479.73333333333335,660.6388498379197 480.40000000000003,660.144900375525 481.06666666666666,659.6505244448316 481.73333333333335,659.1555893680742 482.4,658.6596122637159 483.06666666666666,658.1635792185999 483.73333333333335,657.66652117475 484.4,657.1689353139997 485.06666666666666,656.6708284675832 485.73333333333335,656.1717151179722 486.40000000000003,655.6725809778986 487.06666666666666,655.1724542600351 487.7333333333333,654.6718335774533 488.4,654.1702345207965 489.06666666666666,653.6684765542623 489.73333333333335,653.165918710167 490.40000000000003,652.6624045120674 491.06666666666666,652.1584300959757 491.7333333333333,651.6538357913637 492.4,651.1484667662485 493.06666666666666,650.6426515980155 493.73333333333335,650.1359118301322 494.4,649.6287357737405 495.06666666666666,649.1209724801306 495.73333333333335,648.612135747821 496.4,648.1030494510892 497.06666666666666,647.593225449674 497.7333333333333,647.0825124354914 498.4,646.5710709907929 499.06666666666666,646.0590799467591 499.73333333333335,645.5465460801046 500.40000000000003,645.0332990970314 501.0666666666666,644.5191907702873 501.7333333333333,644.0047045865354 502.4,643.4893674714154 503.06666666666666,642.9733347325238 503.73333333333335,642.4566406680949 504.4,641.939409482282 505.0666666666666,641.4215270283695 505.7333333333333,640.9029672782651 506.4,640.3840655009637 507.06666666666666,639.863868894794 507.7333333333333,639.3433378824569 508.4,638.8220002677073 509.06666666666666,638.3001908414564 509.7333333333333,637.7777348405266 510.40000000000003,637.2544841633115 511.06666666666666,636.7307774409378 511.73333333333335,636.2064290136852 512.4,635.6814924284707 513.0666666666666,635.1559223944136 513.7333333333333,634.629580125805 514.4,634.1026122893663 515.0666666666666,633.5750749254821 515.7333333333333,633.0469182582842 516.4,632.5180072296139 517.0666666666666,631.9886805719117 517.7333333333333,631.4587430000249 518.4,630.9279283374749 519.0666666666666,630.3968449000931 519.7333333333333,629.865028409241 520.4000000000001,629.3324797417836 521.0666666666666,628.7995401774451 521.7333333333333,628.2658779147519 522.4,627.731629026496 523.0666666666666,627.1970017807306 523.7333333333333,626.6615337041311 524.4000000000001,626.1254871224799 525.0666666666667,625.5890738662099 525.7333333333333,625.0519576875076 526.4,624.5142739863643 527.0666666666666,623.9761023898536 527.7333333333333,623.4375779164479 528.4000000000001,622.8981554524246 529.0666666666667,622.3583846207484 529.7333333333333,621.8181454323808 530.4,621.2770161160176 531.0666666666666,620.735548915272 531.7333333333333,620.193409613325 532.4000000000001,619.6509420136617 533.0666666666667,619.1078073843187 533.7333333333333,618.564010037142 534.4,618.0198915398007 535.0666666666666,617.4751178267894 535.7333333333333,616.9296904231514 536.4000000000001,616.3840728971832 537.0666666666667,615.837686882576 537.7333333333333,615.2906545766498 538.4000000000001,614.7434411217193 539.0666666666666,614.1954690694897 539.7333333333332,613.647200428836 540.4000000000001,613.0984168290843 541.0666666666666,612.5492245608515 541.7333333333333,611.9995205878217 542.4,611.4490738639015 543.0666666666666,610.8981207693307 543.7333333333333,610.3467705310767 544.3999999999999,609.7949194452182 545.0666666666667,609.2426787810841 545.7333333333333,608.689943859473 546.4,608.1364826282418 547.0666666666666,607.5827547410747 547.7333333333333,607.0285359690866 548.4000000000001,606.473941418392 549.0666666666666,605.9190891704411 549.7333333333333,605.3634083488693 550.4,604.8073603313693 551.0666666666666,604.2507179263293 551.7333333333333,603.69382723833 552.4000000000001,603.1363454598082 553.0666666666666,602.5782769722223 553.7333333333333,602.0200758824269 554.4,601.4611819682862 555.0666666666666,600.9019408055302 555.7333333333333,600.3422298574828 556.4,599.7822875125304 557.0666666666667,599.2217687607027 557.7333333333333,598.6610217822024 558.4,598.0995963480909 559.0666666666666,597.5377090457742 559.7333333333333,596.9755996499066 560.4000000000001,596.4131632164851 561.0666666666666,595.8498193205489 561.7333333333333,595.286365256459 562.4,594.7225922478596 563.0666666666666,594.1582607776663 563.7333333333333,593.5933736176996 564.4,593.0282798418002 565.0666666666667,592.4629792922386 565.7333333333333,591.8967818811548 566.3999999999999,591.3303822256698 567.0666666666666,590.7636799944844 567.7333333333333,590.1964331732655 568.4000000000001,589.6290918223388 569.0666666666666,589.0615555434426 569.7333333333333,588.4933781593699 570.4000000000001,587.9246626850552 571.0666666666666,587.3554095678834 571.7333333333333,586.7863173364301 572.4,586.216344189681 573.0666666666666,585.6461856436161 573.7333333333333,585.0758454417102 574.4000000000001,584.5048769751606 575.0666666666667,583.9333816830051 575.7333333333333,583.3618076997147 576.4,582.7896107491185 577.0666666666666,582.2172394647596 577.7333333333333,581.6446954359265 578.4000000000001,581.0716317705242 579.0666666666667,580.4980507358674 579.7333333333333,579.924300262517 580.4,579.349938764524 581.0666666666666,578.7755073547448 581.7333333333333,578.2008161348384 582.4000000000001,577.6256148946632 583.0666666666666,577.0499038453526 583.7333333333333,576.4740333315965 584.4,575.898004772714 585.0666666666666,575.3214692746919 585.7333333333333,574.7446893713361 586.3999999999999,574.1671504870812 587.0666666666667,573.5897149758263 587.7333333333333,573.0117798247983 588.4000000000001,572.4337855689707 589.0666666666666,571.8551098475621 589.7333333333332,571.2763793463278 590.4000000000001,570.6971509896705 591.0666666666666,570.1180383039398 591.7333333333333,569.538172556159 592.4,568.9584246381639 593.0666666666666,568.3778355623057 593.7333333333333,567.797106800328 594.3999999999999,567.216238656037 595.0666666666667,566.6348836132299 595.7333333333333,566.0530417277869 596.4,565.4713262704768 597.0666666666666,564.8887768792233 597.7333333333333,564.3065323728821 598.4000000000001,563.7237179441468 599.0666666666666,563.1407740844851 599.7333333333333,562.5569981687067 600.4,561.9733585201247 601.0666666666666,561.3893272528669 601.7333333333333,560.8050838806948 602.4000000000001,560.2207158612911 603.0666666666666,559.635521583089 603.7333333333333,559.0502895189396 604.4,558.4651169792587 605.0666666666666,557.8792057730518 605.7333333333333,557.2934419463342 606.4,556.707291342438 607.0666666666667,556.1205881490955 607.7333333333333,555.5341201093934 608.4,554.9468320561598 609.0666666666666,554.3597818774521 609.7333333333333,553.7722651563959 610.4000000000001,553.1842018096937 611.0666666666666,552.5961081889143 611.7333333333333,552.0078213497453 612.4,551.419073259412 613.0666666666666,550.82986302676 613.7333333333333,550.2408967585943 614.4,549.6513898190478 615.0666666666667,549.0615050710051 615.7333333333333,548.4717864462467 616.3999999999999,547.8812583479439 617.0666666666666,547.2906264312398 617.7333333333333,546.7002441506731 618.4000000000001,546.1094071137562 619.0666666666666,545.5181159661058 619.7333333333333,544.9262923017006 620.4000000000001,544.3347219550977 621.0666666666666,543.7427786527707 621.7333333333333,543.1505794575492 622.4,542.5583624011463 623.0666666666666,541.965695847899 623.7333333333333,541.3729327388521 624.4,540.7792916027014 625.0666666666667,540.1859095970995 625.7333333333332,539.5925105833854 626.4,538.9985892967995 627.0666666666666,538.4041454779043 627.7333333333333,537.8100412583387 628.4,537.2154923555942 629.0666666666667,536.6207784114785 629.7333333333333,536.0259749452571 630.4,535.4307297940878 631.0666666666666,534.8353978456959 631.7333333333333,534.2396246266741 632.4,533.6437651073215 633.0666666666666,533.0477453508075 633.7333333333333,532.4513615843573 634.4,531.8548191956297 635.0666666666666,531.2581934024373 635.7333333333333,530.6611316117855 636.4,530.063913307951 637.0666666666667,529.4666871166283 637.7333333333333,528.8685986340228 638.4000000000001,528.2708569952658 639.0666666666666,527.6729627112479 639.7333333333332,527.0746353127382 640.4,526.4762294879409 641.0666666666666,525.8777458135845 641.7333333333333,525.2787586245532 642.4,524.679766765687 643.0666666666667,524.0806271434003 643.7333333333333,523.4814115377692 644.4,522.8817674247648 645.0666666666667,522.2820490388422 645.7333333333333,521.6818316174118 646.4,521.0816118636128 647.0666666666667,520.4812482982655 647.7333333333333,519.8805290986909 648.4000000000001,519.2796681240882 649.0666666666666,518.6787355718122 649.7333333333333,518.0773089338624 650.4,517.4758821436893 651.0666666666667,516.874740059487 651.7333333333333,516.2727509453912 652.4000000000001,515.6710478906559 653.0666666666666,515.0689229400209 653.7333333333333,514.4667300964315 654.4,513.8641154908755 655.0666666666667,513.2614352193177 655.7333333333333,512.6586204273776 656.4,512.0558090450627 657.0666666666667,511.45250926077773 657.7333333333333,510.8491459295136 658.4,510.2457181605981 659.0666666666667,509.64187180833204 659.7333333333332,509.03789625542976 660.4000000000001,508.4339246095417 661.0666666666666,507.8294696170556 661.7333333333335,507.22537437053927 662.4,506.6207962455954 663.0666666666666,506.01615824499527 663.7333333333333,505.4111039816157 664.4,504.80627974378746 665.0666666666667,504.20110654627763 665.7333333333333,503.59580900580494 666.3999999999999,502.9900982861828 667.0666666666667,502.38439407427694 667.7333333333332,501.7785671460661 668.4000000000001,501.1726831085188 669.0666666666666,500.5659663319844 669.7333333333333,499.9599693316223 670.4,499.35314055872203 671.0666666666666,498.74667629403615 671.7333333333333,498.13973763909314 672.4,497.5327436938304 673.0666666666666,496.92569546859403 673.7333333333333,496.3182373965265 674.4,495.7106624228865 675.0666666666667,495.1034536131295 675.7333333333332,494.49541631405145 676.4,493.8876833885743 677.0666666666666,493.2796051553752 677.7333333333333,492.6713499750543 678.4,492.0631061789642 679.0666666666667,491.454455292734 679.7333333333333,490.84575374266655 680.4,490.23658375699455 681.0666666666666,489.62772023889545 681.7333333333333,489.01851206131244 682.4,488.4091936500925 683.0666666666666,487.7997651368239 683.7333333333333,487.19034960013636 684.4,486.58052954454587 685.0666666666666,485.9706007144129 685.7333333333333,485.36068467266205 686.4,484.75066138659355 687.0666666666667,484.1405913976475 687.7333333333333,483.52976142905317 688.4000000000001,482.9192423801308 689.0666666666666,482.3083209448816 689.7333333333332,481.6977098155601 690.4,481.0866377328214 691.0666666666666,480.47593706532723 691.7333333333333,479.86441838687125 692.4,479.25285608460837 693.0666666666667,478.64124981615754 693.7333333333333,478.02995592639246 694.4,477.41784697515226 695.0666666666667,476.8064667092843 695.7333333333333,476.19433072229066 696.4,475.58209298392836 697.0666666666667,474.9698137446062 697.7333333333333,474.35755024971405 698.4000000000001,473.7451293449741 699.0666666666666,473.1324257868716 699.7333333333333,472.51956582074007 700.4,471.90672292959044 701.0666666666667,471.29378125398205 701.7333333333333,470.68014360400264 702.4000000000001,470.06712178411306 703.0666666666666,469.4537611263699 703.7333333333333,468.84024611799396 704.4,468.2263920621672 705.0666666666667,467.6128566867409 705.7333333333333,466.998925535662 706.4,466.38525583984205 707.0666666666667,465.7708903329346 707.7333333333333,465.15678821053814 708.4,464.5427040628235 709.0666666666667,463.9281691367869 709.7333333333332,463.31359766311385 710.4000000000001,462.6989886560665 711.0666666666666,462.08434354427885 711.7333333333335,461.46924856623235 712.4,460.8545301952971 713.0666666666666,460.2393638020902 713.7333333333333,459.624161170928 714.4,459.00856579152173 715.0666666666667,458.39299068114315 715.7333333333333,457.7776274462926 716.3999999999999,457.16228433232766 717.0666666666667,456.54619182979565 717.7333333333332,455.930422876812 718.4000000000001,455.3142073393619 719.0666666666666,454.6987270877017 719.7333333333333,454.08244461161274 720.4,453.46612870293654 721.0666666666666,452.84942443059293 721.7333333333333,452.23340151657726 722.4,451.61662833968126 723.0666666666666,450.9998224676885 723.7333333333333,450.3829846802185 724.4,449.76606363710243 725.0666666666667,449.1491106747754 725.7333333333332,448.53181850031683 726.4,447.9144421595801 727.0666666666666,447.29739149798314 727.7333333333333,446.67995256941725 728.4,446.0621272460193 729.0666666666667,445.4449864296605 729.7333333333333,444.8270966244391 730.4,444.2094817260495 731.0666666666666,443.5911733913789 731.7333333333333,442.9734982939246 732.4,442.355132702683 733.0666666666666,441.73704258190554 733.7333333333333,441.1182079242088 734.4,440.50041452960926 735.0666666666666,439.881876335247 735.7333333333333,439.2628998402562 736.4,438.64430445565625 737.0666666666667,438.0253213574377 737.7333333333333,437.40661990599324 738.4000000000001,436.7875828145374 739.0666666666666,436.1684665679249 739.7333333333332,435.5493201891717 740.4,434.92978812748277 741.0666666666666,434.31058645132305 741.7333333333333,433.6913579253236 742.4,433.07174581256544 743.0666666666667,432.45241483579326 743.7333333333333,431.8323906532324 744.4,431.21269541965324 745.0666666666667,430.59292349510366 745.7333333333333,429.97312522027494 746.4,429.3529420909459 747.0666666666667,428.73314400393303 747.7333333333333,428.1128619167364 748.4000000000001,427.49265321136636 749.0666666666666,426.8723170809425 749.7333333333333,426.2516473121331 750.4,425.6313108485949 751.0666666666667,425.01054347677575 751.7333333333333,424.3898001603834 752.4000000000001,423.76898072651176 753.0666666666666,423.1481360625239 753.7333333333333,422.52731612126917 754.4,421.90637648168985 755.0666666666667,421.28515154725727 755.7333333333333,420.66416145236803 756.4,420.0424792843324 757.0666666666667,419.4214897673699 757.7333333333333,418.80012032085386 758.4,418.17832079051595 759.0666666666667,417.5565431534148 759.7333333333332,416.9350530682286 760.4000000000001,416.3135393248031 761.0666666666666,415.6916951360082 761.7333333333335,415.0700904792982 762.4,414.44784148345593 763.0666666666666,413.82583049920385 763.7333333333333,413.2038450277015 764.4,412.58183659724773 765.0666666666667,411.9590916229812 765.7333333333333,411.33699424710915 766.3999999999999,410.7145608323248 767.0666666666667,410.0920590631522 767.7333333333332,409.4692233825678 768.4000000000001,408.84668087831574 769.0666666666666,408.2241163642842 769.7333333333333,407.60117142703143 770.4,406.97820311246096 771.0666666666666,406.35521415801156 771.7333333333333,405.732204146946 772.4,405.1095338570835 773.0666666666666,404.48607945363966 773.7333333333333,403.8626484051793 774.4,403.2395088425034 775.0666666666667,402.6160372130502 775.7333333333332,401.99285903055 776.4,401.3693025743357 777.0666666666666,400.7457234540285 777.7333333333333,400.1221698947289 778.4,399.4985513768651 779.0666666666667,398.87451060353584 779.7333333333333,398.2508547910628 780.4,397.6268207021681 781.0666666666666,397.00312326043115 781.7333333333333,396.3790026897705 782.4,395.7552671865294 783.0666666666666,395.1311558159095 783.7333333333333,394.5066217903825 784.4,393.8824250994346 785.0666666666666,393.2582542856129 785.7333333333333,392.6336618288028 786.4,392.00941161940005 787.0666666666667,391.3847836158006 787.7333333333333,390.7597763578839 788.4000000000001,390.13542468404415 789.0666666666666,389.5107397790715 789.7333333333332,388.8860392819189 790.4,388.26091737509967 791.0666666666666,387.6361809320961 791.7333333333333,387.0110652224391 792.4,386.3862468221615 793.0666666666667,385.7610961894233 793.7333333333333,385.1358863308438 794.4,384.51065857393564 795.0666666666667,383.88541400937714 795.7333333333333,383.25979079018504 796.4,382.6345093493904 797.0666666666667,382.00885191038805 797.7333333333333,381.38317798251836 798.4000000000001,380.7574891488672 799.0666666666666,380.1317829829558 799.7333333333333,379.50637660512604 800.4,378.8806351135225 801.0666666666667,378.25519324119597 801.7333333333333,377.62941923644695 802.4000000000001,377.0032266467401 803.0666666666666,376.37737884824446 803.7333333333333,375.7511988823389 804.4,375.1249602712551 805.0666666666667,374.4990622454677 805.7333333333333,373.8727892645448 806.4,373.24685950946434 807.0666666666667,372.6205574019202 807.7333333333333,371.99419703756087 808.4,371.3675041021457 809.0666666666667,370.7415113481828 809.7333333333332,370.1147859089589 810.4000000000001,369.48836189376806 811.0666666666666,368.86196637356545 811.7333333333335,368.2355144387768 812.4,367.6086873391043 813.0666666666666,366.9818852921402 813.7333333333333,366.35466759340375 814.4,365.72779419223104 815.0666666666667,365.1009084513995 815.7333333333333,364.4736483267804 816.3999999999999,363.8470919127601 817.0666666666667,363.2198006052003 817.7333333333332,362.5928539753488 818.4000000000001,361.9655341786513 819.0666666666666,361.3385611482525 819.7333333333333,360.71117278324465 820.4,360.0838096015025 821.0666666666666,359.45603229126914 821.7333333333333,358.8290025100789 822.4,358.2011991195455 823.0666666666666,357.57378160038695 823.7333333333333,356.94630779141045 824.4,356.3188202399808 825.0666666666667,355.6909602043224 825.7333333333332,355.0631282104379 826.4,354.4352428227346 827.0666666666666,353.8073415310235 827.7333333333333,353.1790674770417 828.4,352.5511388634738 829.0666666666667,351.9231598849734 829.7333333333333,351.29484779628217 830.4,350.66724116777664 831.0666666666666,350.0385012540977 831.7333333333333,349.41086655229543 832.4,348.78250010618973 833.0666666666666,348.15444241911047 833.7333333333333,347.5256536591403 834.4,346.897609834416 835.0666666666666,346.26915210445 835.7333333333333,345.6406822149942 836.4,345.01223896818186 837.0666666666667,344.3841052264504 837.7333333333333,343.75559961106586 838.4000000000001,343.12708205308127 839.0666666666666,342.4981898771192 839.7333333333332,341.86964529550386 840.4,341.24072949393667 841.0666666666666,340.61180289976187 841.7333333333333,339.98282541722887 842.4,339.35387274552 843.0666666666667,338.7252674968846 843.7333333333333,338.0962522374253 844.4,337.46726552831615 845.0666666666667,336.838228492357 845.7333333333333,336.2092181071649 846.4,335.57979811421035 847.0666666666667,334.9507623865386 847.7333333333333,334.32167677565525 848.4000000000001,333.69257917911335 849.0666666666666,333.0631491352831 849.7333333333333,332.4340309244767 850.4,331.80490180690333 851.0666666666667,331.1754008887259 851.7333333333333,330.5458872908109 852.4000000000001,329.916362457141 853.0666666666666,329.2871864648765 853.7333333333333,328.6572816004875 854.4,328.0280471590098 855.0666666666667,327.3984797780542 855.7333333333333,326.76889954782047 856.4,326.1393083664582 857.0666666666667,325.5096688852884 857.7333333333333,324.88005553360665 858.4,324.25039686518465 859.0666666666667,323.7477086916632 859.7333333333332,323.7497324981924 860.4000000000001,323.7506402066323 861.0666666666666,323.75071696657903 861.7333333333335,323.7500744865992 862.4,323.74903514846784 863.0666666666666,323.7479590216669 863.7333333333333,323.7465595997454 864.4,323.74548300543375 865.0666666666667,323.7440467879144 865.7333333333333,323.7426105630082 866.3999999999999,323.7408147148375 867.0666666666667,323.73937847514395 867.7333333333332,323.73794222806373 868.4000000000001,323.7361463576736 869.0666666666666,323.7350697117441 869.7333333333333,323.73327382655276 870.4,323.73183754991305 871.0666666666666,323.73040126588705 871.7333333333333,323.72896497447505 872.4,323.72720629116293 873.0666666666666,323.72573275346707 873.7333333333333,323.724296439883 874.4,323.7228601189132 875.0666666666667,323.721064174486 875.7333333333332,323.7196278387306 876.4,323.7182287263385 877.0666666666666,323.71675514506313 877.7333333333333,323.7149591710201 878.4,323.7135228057086 879.0666666666667,323.71208643301196 879.7333333333333,323.7102904367534 880.4,323.70889127924204 881.0666666666666,323.70741765440596 881.7333333333333,323.7059808402206 882.4,323.70418481581436 883.0666666666666,323.7031080164948 883.7333333333333,323.7016715935547 884.4,323.70023516322976 885.0666666666666,323.6987987255203 885.7333333333333,323.6970026641201 886.4,323.6955662116274 887.0666666666667,323.69377013541316 887.7333333333333,323.6923336681376 888.4000000000001,323.6912568098431 889.0666666666666,323.6894607114338 889.7333333333332,323.6880242220057 890.4,323.68658772519353 891.0666666666666,323.68515122099734 891.7333333333333,323.6837147094171 892.4,323.68227819045313 893.0666666666667,323.68087889173853 893.7333333333333,323.6794051303738 894.4,323.6779685892586 895.0666666666667,323.67653204076 895.7333333333333,323.6750954848777 896.4,323.673658921612 897.0666666666667,323.67222235096307 897.7333333333333,323.6707857729307 898.4000000000001,323.66934918751525 899.0666666666666,323.6675529781245 899.7333333333333,323.66611637792886 900.4,323.66467977035023 901.0666666666667,323.66288353875177 901.7333333333333,323.6618065330442 902.4000000000001,323.660369903317 903.0666666666666,323.658933266207 903.7333333333333,323.6574966217144 904.4,323.65605996983936 905.0666666666667,323.65466053602813 905.7333333333333,323.6528270272075 906.4,323.65142757834803 907.0666666666667,323.64995367175254 907.7333333333333,323.6485169829519 908.4,323.64708028676887 909.0666666666667,323.6452839663975 909.7333333333332,323.64384725543664" fill="none" stroke="#CB6B27" stroke-width="4" stroke-linecap="round" stroke-linejoin="round"/>
<polyline points="110.4,704.0311864841782 111.06666666666666,704.0107205035837 111.73333333333333,703.9986592194907 112.4,703.9914630284925 113.06666666666666,703.9868023474272 113.73333333333333,703.9839690094185 114.4,703.9823468956237 115.06666666666666,703.9814331503195 115.73333333333333,703.9807248107953 116.4,703.9807248107953 117.06666666666666,703.9807248107953 117.73333333333333,703.9807248107953 118.4,703.9807248107953 119.06666666666666,703.9807248107953 119.73333333333333,703.9807248107953 120.4,703.9807248107953 121.06666666666666,703.9807248107953 121.73333333333333,703.9807248107953 122.4,703.9807248107953 123.06666666666666,703.9807248107953 123.73333333333333,703.9807248107953 124.4,703.9807248107953 125.06666666666666,703.9807248107953 125.73333333333333,703.9807248107953 126.4,703.9807248107953 127.06666666666666,703.9807248107953 127.73333333333333,703.9807248107953 128.4,703.9807248107953 129.06666666666666,703.9807248107953 129.73333333333335,703.9807248107953 130.4,703.9751499910757 131.06666666666666,703.9547686227262 131.73333333333332,703.9415834062822 132.4,703.9335624514401 133.06666666666666,703.928283512382 133.73333333333335,703.9249244711377 134.4,703.9224794735181 135.06666666666666,703.9202400474358 135.73333333333332,703.9190065267468 136.4,703.9176811890408 137.06666666666666,703.9166532077911 137.73333333333332,703.9156251386911 138.4,703.9145970183359 139.06666666666666,703.9132714921606 139.73333333333335,703.9127462814021 140.4,703.9117180080517 141.06666666666666,703.9108953391835 141.73333333333332,703.9095696261876 142.4,703.9087468802311 143.06666666666666,703.9080157148888 143.73333333333335,703.9068955496667 144.4,703.9058669817015 145.06666666666666,703.9050440138691 145.73333333333335,703.904221049362 146.4,703.9031923351484 147.06666666666666,703.9023692186847 147.73333333333335,703.9015461253249 148.4,703.9005172648814 149.06666666666666,703.8996940878003 149.73333333333335,703.8986650376786 150.4,703.8978417709519 151.06666666666666,703.8971098858478 151.73333333333335,703.8959892489538 152.4,703.8951658534114 153.06666666666666,703.8941365218229 153.73333333333332,703.8933130366536 154.4,703.8922837309485 155.06666666666666,703.8917572712473 155.73333333333335,703.8904306074405 156.4,703.8896069489692 157.06666666666666,703.8890803286879 157.73333333333335,703.8877535307748 158.4,703.8869297435359 159.06666666666666,703.8861971389841 159.73333333333335,703.8850760306909 160.4,703.8840462798964 161.06666666666666,703.883222112814 161.73333333333335,703.8823981072403 162.4,703.8816654214353 163.06666666666666,703.8808411021564 163.73333333333335,703.8800169641529 164.4,703.8786897175002 165.06666666666666,703.878162448796 165.73333333333335,703.8773381820824 166.4,703.8763077284735 167.06666666666666,703.8754833722064 167.73333333333335,703.8741558983033 168.4,703.8736283573896 169.06666666666666,703.8728038724391 169.73333333333335,703.8714762645471 170.4,703.8706514002408 171.06666666666666,703.8699180203578 171.73333333333332,703.8690933622704 172.4,703.8677652546951 173.06666666666666,703.8669405107933 173.73333333333335,703.8664128703078 174.4,703.8653817469475 175.06666666666666,703.8645568707044 175.73333333333335,703.8635259847877 176.4,703.8627006662609 177.06666666666666,703.8618756613982 177.73333333333335,703.860547511999 178.39999999999998,703.860019162641 179.06666666666666,703.8586909200903 179.73333333333335,703.8581628513631 180.4,703.8568341233929 181.06666666666666,703.8560088597105 181.73333333333332,703.8551835569217 182.39999999999998,703.8541517687734 183.06666666666666,703.8533263765196 183.73333333333335,703.8522944730896 184.4,703.8517660681265 185.06666666666666,703.8504374182594 185.73333333333335,703.8496114015153 186.4,703.848579726953 187.06666666666666,703.8477540722715 187.73333333333335,703.8467218309509 188.4,703.8461931385564 189.06666666666666,703.8448642153319 189.73333333333335,703.8440378967265 190.4,703.8435090637676 191.06666666666666,703.8421800067641 191.73333333333335,703.8416505712452 192.39999999999998,703.8405275387935 193.06666666666666,703.8394953756477 193.73333333333335,703.838668760581 194.39999999999998,703.8379335106821 195.06666666666666,703.8368103220341 195.73333333333335,703.8362805659808 196.4,703.835248151028 197.06666666666666,703.8341242819722 197.73333333333335,703.8333887645217 198.4,703.8322653784347 199.06666666666666,703.8317353506037 199.73333333333335,703.8307026885308 200.4,703.8298761645386 201.06666666666666,703.8288428035698 201.73333333333335,703.8280161902161 202.39999999999998,703.8269833313716 203.06666666666666,703.8258590496132 203.73333333333335,703.825329269629 204.4,703.823999311647 205.06666666666666,703.823468796973 205.73333333333332,703.8221387460214 206.4,703.8213111784863 207.06666666666666,703.8202779759437 207.73333333333335,703.8194509758039 208.4,703.8184170014307 209.06666666666666,703.8175899119705 209.73333333333335,703.8165565127506 210.4,703.8160255600488 211.06666666666666,703.8149014259185 211.73333333333335,703.8138678810612 212.4,703.8128335693132 213.06666666666666,703.8120062178523 213.73333333333335,703.8109717910355 214.4,703.810144350284 215.06666666666666,703.8091105518992 215.73333333333332,703.8082822783737 216.4,703.8077515885257 217.06666666666666,703.8064207653458 217.73333333333332,703.8055923438101 218.4,703.8048551648217 219.06666666666666,703.8040274194309 219.73333333333335,703.8031988461865 220.39999999999998,703.8018677966345 221.06666666666666,703.8013367771281 221.73333333333335,703.8000048320775 222.39999999999998,703.7991768728849 223.06666666666666,703.7983488746868 223.73333333333335,703.7975200092243 224.39999999999998,703.7964855274065 225.06666666666666,703.795657400972 225.73333333333335,703.7946219759095 226.40000000000003,703.7940905782006 227.06666666666666,703.7932623198324 227.73333333333335,703.7922267249313 228.40000000000003,703.7913983773493 229.06666666666666,703.7902731886088 229.73333333333335,703.7895342306988 230.39999999999998,703.7882025082673 231.06666666666666,703.7873739919054 231.73333333333335,703.7865445294731 232.39999999999998,703.7855094591218 233.06666666666666,703.7849775916872 233.73333333333332,703.7841479776657 234.4,703.7828159885072 235.06666666666666,703.7817807218007 235.73333333333332,703.780951904823 236.4,703.7804188531442 237.06666666666666,703.7790866843679 237.73333333333335,703.7782567730678 238.4,703.7772212598553 239.06666666666666,703.7763922255874 239.73333333333335,703.7753556313023 240.39999999999998,703.7745265078875 241.06666666666666,703.7736973455106 241.73333333333335,703.7726605861719 242.4,703.771831334659 243.06666666666666,703.7707954798234 243.73333333333332,703.770262856253 244.4,703.7694324476643 245.06666666666666,703.7683964428617 245.73333333333332,703.7675669763404 246.4,703.766439724626 247.06666666666663,703.765403579157 247.73333333333332,703.7648706753033 248.4,703.7638333594891 249.06666666666666,703.7630036758117 249.73333333333332,703.7618772782639 250.39999999999998,703.7611364724123 251.06666666666666,703.760009994139 251.73333333333332,703.7589724032033 252.4,703.7581425061314 253.06666666666666,703.757105918218 253.73333333333335,703.7562748142586 254.4,703.7554447891838 255.06666666666666,703.7547046975164 255.73333333333335,703.7535768044004 256.4,703.7525399702653 257.06666666666666,703.7517097729776 257.73333333333335,703.7506716806786 258.40000000000003,703.7498413943432 259.06666666666666,703.7493076864031 259.73333333333335,703.7482694245844 260.4,703.7471423976289 261.06666666666666,703.7466085496544 261.73333333333335,703.7452735224035 262.4,703.7444429801736 263.06666666666666,703.743405659653 263.73333333333335,703.7425738121825 264.4,703.7415363907247 265.0666666666667,703.7407044404687 265.73333333333335,703.7398736813077 266.4,703.738836114723 267.06666666666666,703.738301840511 267.73333333333335,703.7369663493885 268.4,703.7361354181373 269.06666666666666,703.7355997286953 269.73333333333335,703.7342653601461 270.4,703.7332274967391 271.06666666666666,703.732395098508 271.73333333333335,703.7316536725062 272.4,703.7305259419293 273.06666666666666,703.7299899270224 273.73333333333335,703.7286552868186 274.4,703.7278239666924 275.06666666666666,703.7267844281121 275.73333333333335,703.7259530190341 276.4,703.7249147138496 277.06666666666666,703.7243783735473 277.73333333333335,703.723339962867 278.4,703.7225083780876 279.06666666666666,703.7214684988705 279.73333333333335,703.7201334484904 280.4,703.719598218702 281.0666666666667,703.718468588083 281.73333333333335,703.7177263614312 282.4,703.7165980435194 283.0666666666667,703.715854300666 283.73333333333335,703.7147259022205 284.4,703.7138939325309 285.0666666666667,703.7128535574525 285.73333333333335,703.7120214988669 286.4,703.7109824555629 287.06666666666666,703.7101488617584 287.73333333333335,703.7091097176697 288.4,703.7082774872115 289.06666666666666,703.7072367763581 289.73333333333335,703.7064044570263 290.4,703.7053636316454 291.06666666666666,703.7048276417497 291.73333333333335,703.7039951909913 292.4,703.7026577864926 293.06666666666666,703.7018252506011 293.73333333333335,703.7007856652328 294.4,703.6999515214395 295.06666666666666,703.6989118353345 295.73333333333335,703.6980791276503 296.4,703.6973341869121 297.0666666666666,703.6965013866725 297.73333333333335,703.6953721702531 298.4,703.6943306802369 299.06666666666666,703.6934977560743 299.73333333333335,703.6927540939272 300.4,703.6919194992186 301.06666666666666,703.690879367396 301.73333333333335,703.6897499155557 302.4,703.688708090044 303.06666666666666,703.6876678114807 303.73333333333335,703.6868345826996 304.4,703.6859996919283 305.06666666666666,703.6849592686019 305.73333333333335,703.6841259122286 306.4,703.6830837513057 307.06666666666666,703.6822503061553 307.73333333333335,703.6817131371947 308.40000000000003,703.6803744969081 309.06666666666666,703.679540924192 309.73333333333335,703.6785001607166 310.4,703.6776648230297 311.0666666666667,703.6768311227637 311.73333333333335,703.6757902145871 312.4,703.6749547297219 313.0666666666667,703.6744171843159 313.73333333333335,703.6730798490622 314.4,703.672037024166 315.0666666666667,703.6712030635697 315.73333333333335,703.670663594696 316.4,703.669326075004 317.0666666666666,703.6684919869058 317.73333333333335,703.6674506381363 318.4,703.6667037260214 319.0666666666666,703.6655732572195 319.73333333333335,703.664738997589 320.4,703.6636956732804 321.0666666666666,703.6628613249502 321.73333333333335,703.6618196803485 322.4,703.660983449314 323.0666666666667,703.6599417041579 323.73333333333335,703.6594033996809 324.4,703.6585670178393 325.06666666666666,703.6572289164999 325.73333333333335,703.6566904724774 326.4,703.6558539435802 327.0666666666667,703.6545157097963 327.7333333333333,703.6536809351279 328.4,703.6528442629275 329.06666666666666,703.6518020840986 329.73333333333335,703.6512633610291 330.4,703.650221082921 331.06666666666666,703.6488807002296 331.73333333333335,703.6480456655036 332.4,703.6472086940148 333.06666666666666,703.6466697344217 333.73333333333335,703.6453310574756 334.4,703.6444958566458 335.06666666666666,703.6434513200746 335.73333333333335,703.642616030626 336.40000000000003,703.6415733171098 337.06666666666666,703.6407360017926 337.7333333333333,703.6399005850061 338.4,703.6388577270375 339.06666666666666,703.638020264776 339.73333333333335,703.6371847206674 340.40000000000003,703.6364378310997 341.06666666666666,703.6353041090763 341.7333333333333,703.6344684376613 342.4,703.6334252908432 343.06666666666666,703.6325875347447 343.73333333333335,703.6315442875053 344.4,703.6310045334175 345.06666666666666,703.6301666266886 345.73333333333335,703.6288271502092 346.4,703.6279911802583 347.06666666666666,703.6272437659278 347.73333333333335,703.6264056624809 348.4,703.625066007864 349.06666666666666,703.6242298666967 349.73333333333335,703.6233916201368 350.40000000000003,703.6223478892572 351.0666666666666,703.6215116208576 351.73333333333335,703.620465709188 352.4,703.6199253914365 353.06666666666666,703.6188814610456 353.73333333333335,703.6180429118399 354.4,703.6169103969272 355.0666666666666,703.6163698974294 355.73333333333335,703.6150297601333 356.4,703.6144870382304 357.0666666666667,703.6131468089948 357.73333333333335,703.612102544165 358.4,703.6112636553098 359.0666666666667,703.6107228710185 359.73333333333335,703.6096762925696 360.4,703.6088394179242 361.0666666666666,703.6074989187882 361.73333333333335,703.6066619652772 362.4,703.6058227829232 363.0666666666667,703.6047781293072 363.73333333333335,703.6039410486644 364.4,703.6031900554253 365.0666666666666,703.6020569217663 365.73333333333335,703.601012073455 366.4,703.6001725924224 367.06666666666666,703.5994235916116 367.73333333333335,703.5982880606497 368.40000000000003,703.5975389511782 369.06666666666666,703.5964055832574 369.73333333333335,703.5953604400318 370.40000000000003,703.5948165876324 371.06666666666666,703.5934754169241 371.73333333333335,703.5926378174036 372.40000000000003,703.591797891113 373.0666666666667,703.591048413962 373.73333333333335,703.590210683657 374.4,703.5888669872812 375.06666666666666,703.5880291723074 375.73333333333335,703.5869835901414 376.40000000000003,703.5861433653533 377.0666666666667,703.5853054233544 377.7333333333333,703.5842596971027 378.4,703.5837152034904 379.06666666666666,703.5823734992713 379.73333333333335,703.5818312557707 380.40000000000003,703.5804870991716 381.06666666666666,703.5796488979198 381.73333333333335,703.5786028769846 382.4,703.5777622072081 383.06666666666666,703.5769238789791 383.73333333333335,703.5761735581965 384.4,703.5751249325237 385.06666666666666,703.5739906325736 385.73333333333335,703.5734479655682 386.40000000000003,703.57210334894 387.06666666666666,703.5712647615564 387.7333333333333,703.5702183020238 388.4,703.56937718742 389.06666666666666,703.5683306277605 389.73333333333335,703.5674918696012 390.40000000000003,703.5664427513555 391.06666666666666,703.5658997033141 391.7333333333333,703.5645571508603 392.4,703.5637157380487 393.06666666666666,703.562668883925 393.73333333333335,703.561829866721 394.4,703.560988307451 395.06666666666666,703.5602370826247 395.73333333333335,703.5591021653247 396.4,703.5580525500221 397.06666666666666,703.5575090787391 397.7333333333333,703.5561661253291 398.4,703.5553242679598 399.06666666666666,703.5544849087513 399.73333333333335,703.5534375725383 400.40000000000003,703.5525955687632 401.0666666666666,703.5515481325014 401.7333333333333,703.5507086026473 402.4,703.5499542179249 403.06666666666666,703.549114596088 403.73333333333335,703.5477712419012 404.4,703.5469315414304 405.0666666666666,703.5458812096397 405.7333333333333,703.5450414209375 406.4,703.5442892985296 407.06666666666666,703.543446797006 407.7333333333333,703.5426068777866 408.4,703.5412605741736 409.06666666666666,703.5404205704785 409.7333333333333,703.5393725020382 410.4,703.5385324160043 411.06666666666666,703.537689625588 411.73333333333335,703.5369370829118 412.4,703.5358012006036 413.06666666666666,703.5350458700191 413.73333333333335,703.5342055653169 414.4,703.5330695684323 415.06666666666666,703.5320184134384 415.73333333333335,703.5311779857578 416.4,703.5303375195417 417.06666666666666,703.5292862012768 417.73333333333335,703.528741279971 418.40000000000003,703.5276925815951 419.06666666666666,703.5265535724672 419.73333333333335,703.5257128914005 420.40000000000003,703.5246640540018 421.06666666666666,703.5238205270609 421.73333333333335,703.5230671975894 422.40000000000003,703.5219307382578 423.0666666666667,703.5211745231878 423.73333333333335,703.5200379841401 424.4,703.5194925979505 425.06666666666666,703.5181450283163 425.73333333333335,703.5173039620577 426.40000000000003,703.5162546871638 427.0666666666667,703.5154107164315 427.7333333333333,703.5148650949253 428.4,703.5138156717538 429.06666666666666,703.5129715511146 429.73333333333335,703.5119220280795 430.40000000000003,703.510785106572 431.06666666666666,703.5097326329021 431.73333333333335,703.5088911815974 432.4,703.5078414693799 433.06666666666666,703.5069970550173 433.73333333333335,703.5059472429625 434.4,703.5051056213651 435.06666666666666,703.5042610609011 435.73333333333335,703.5032111053029 436.40000000000003,703.5023693571532 437.06666666666666,703.5013193075903 437.7333333333333,703.5004745514815 438.4,703.4997199061706 439.06666666666666,703.4988779840373 439.73333333333335,703.4980360234251 440.40000000000003,703.4966872886798 441.06666666666666,703.4958452437722 441.7333333333333,703.4947948569665 442.4,703.4939497592073 443.06666666666666,703.4931947476913 443.73333333333335,703.4923525288497 444.4,703.4912118137458 445.06666666666666,703.4901611837064 445.73333333333335,703.4893188421282 446.4,703.4882651084503 447.06666666666666,703.4874226788687 447.7333333333333,703.4863718551755 448.4,703.4855263141964 449.06666666666666,703.4844753907652 449.73333333333335,703.4836327910564 450.40000000000003,703.4825817737433 451.0666666666666,703.4817360372783 451.7333333333333,703.4806849202447 452.4,703.4798421504375 453.06666666666666,703.4789962680287 453.73333333333335,703.4779450076195 454.4,703.4771021114032 455.0666666666666,703.4760476634732 455.7333333333333,703.4752046793014 456.4,703.4744486171542 457.06666666666666,703.4733070458964 457.7333333333333,703.4727593196467 458.4,703.4717077176927 459.06666666666666,703.4703575578978 459.7333333333333,703.4695143157599 460.4,703.4684594222734 461.06666666666666,703.46761609221 461.73333333333335,703.466564245428 462.4,703.4660130217787 463.06666666666666,703.4502976216908 463.73333333333335,704.205589199869 464.4,705.8505443855342 465.06666666666666,707.8766362481218 465.73333333333335,709.9463163085436 466.4,711.7842144316636 467.06666666666666,713.1864231793816 467.73333333333335,714.1180643698239 468.40000000000003,714.6510322558729 469.06666666666666,714.8920703194102 469.73333333333335,714.971631376271 470.40000000000003,714.9956306677063 471.06666666666666,715.0529169367591 471.73333333333335,715.1965610049422 472.40000000000003,715.4463895439676 473.0666666666667,715.8127350267688 473.73333333333335,716.2971949099958 474.4,716.8888632345828 475.06666666666666,717.581626772427 475.73333333333335,718.3617711707698 476.40000000000003,719.2208998767547 477.0666666666667,720.1506033251503 477.7333333333333,721.1416403616469 478.4,722.185056067476 479.06666666666666,723.273049827275 479.73333333333335,724.3976562350038 480.40000000000003,725.5527975581772 481.06666666666666,726.7341410670132 481.73333333333335,727.9356721142254 482.4,729.1532468130788 483.06666666666666,730.381301830395 483.73333333333335,731.6157772618965 484.4,732.8518032908912 485.06666666666666,734.0848323926931 485.73333333333335,735.2994868393238 486.40000000000003,736.4824275191797 487.06666666666666,737.626748198247 487.7333333333333,738.7290192447729 488.4,739.7864251016457 489.06666666666666,740.7994752134516 489.73333333333335,741.7685855153452 490.40000000000003,742.6950151211505 491.06666666666666,743.5842448153115 491.7333333333333,744.43793699031 492.4,745.2581960976077 493.06666666666666,746.0502386822853 493.73333333333335,746.818817274777 494.4,747.5656951576095 495.06666666666666,748.292355739143 495.73333333333335,749.0001149334266 496.4,749.6923850369757 497.06666666666666,750.3711803861044 497.7333333333333,751.038030814037 498.4,751.694158324573 499.06666666666666,752.3414006022595 499.73333333333335,752.980976037034 500.40000000000003,753.6139951714109 501.0666666666666,754.2413710836358 501.7333333333333,754.8637981396123 502.4,755.4818188597333 503.06666666666666,756.0966296484497 503.73333333333335,756.7086643365714 504.4,757.317667462237 505.0666666666666,757.9250157355634 505.7333333333333,758.5302191282365 506.4,759.1342624176896 507.06666666666666,759.7243813094774 507.7333333333333,760.2878142721898 508.4,760.8268553763214 509.06666666666666,761.3418444121526 509.7333333333333,761.817830528127 510.40000000000003,762.2718079434974 511.06666666666666,762.7007776287895 511.73333333333335,763.1019208020891 512.4,763.4802346589538 513.0666666666666,763.8381268593871 513.7333333333333,764.1796346958115 514.4,764.4993922564715 515.0666666666666,764.8083133570847 515.7333333333333,765.0937037342836 516.4,765.3668113208474 517.0666666666666,765.6242673651742 517.7333333333333,765.8645807461244 518.4,766.0924619008471 519.0666666666666,766.305407522693 519.7333333333333,766.5067805667866 520.4000000000001,766.699420892511 521.0666666666666,766.8833283820584 521.7333333333333,767.0556548970499 522.4,767.2183498141694 523.0666666666666,767.3737072470944 523.7333333333333,767.5226970421982 524.4000000000001,767.662069585784 525.0666666666667,767.792181795415 525.7333333333333,767.9150261862073 526.4,768.0320413084927 527.0666666666666,768.1418462844396 527.7333333333333,768.2467290809401 528.4000000000001,768.345766121674 529.0666666666667,768.4381835980398 529.7333333333333,768.5260388184641 530.4,768.6097356356714 531.0666666666666,768.6894234259947 531.7333333333333,768.7636124099936 532.4000000000001,768.834103652389 533.0666666666667,768.9009047622983 533.7333333333333,768.9648537620105 534.4,769.0234819383171 535.0666666666666,769.0785879681886 535.7333333333333,769.1321587211215 536.4000000000001,769.1818304735425 537.0666666666667,769.2297844996482 537.7333333333333,769.2752892324332 538.4000000000001,769.3176433949108 539.0666666666666,769.3582991729629 539.7333333333332,769.3963065455198 540.4000000000001,769.4317203029989 541.0666666666666,769.4650963014284 541.7333333333333,769.4966151068508 542.4,769.5261405708028 543.0666666666666,769.5544426050559 543.7333333333333,769.5819660043976 544.3999999999999,769.6079519198366 545.0666666666667,769.6321666400256 545.7333333333333,769.6543446500533 546.4,769.675197379463 547.0666666666666,769.6946326642168 547.7333333333333,769.713065756765 548.4000000000001,769.7302310082034 549.0666666666666,769.7461974249528 549.7333333333333,769.7631084235477 550.4,769.7791334344829 551.0666666666666,769.7944101437471 551.7333333333333,769.8065377322234 552.4000000000001,769.8181705934759 553.0666666666666,769.8286769211774 553.7333333333333,769.8382581008128 554.4,769.8468330882982 555.0666666666666,769.8546898707294 555.7333333333333,769.855850847708 556.4,769.8574442338953 557.0666666666667,769.858890653839 557.7333333333333,769.8599832905153 558.4,769.8611965371406 559.0666666666666,769.8621300677274 559.7333333333333,769.8631009897988 560.4000000000001,769.8643710253766 561.0666666666666,769.8652256575873 561.7333333333333,769.8659823201189 562.4,769.8666393453781 563.0666666666666,769.8671952545494 563.7333333333333,769.8676487734859 564.4,769.8679988468313 565.0666666666667,769.868055796713 565.7333333333333,769.8682054692213 566.3999999999999,769.8682501064977 567.0666666666666,769.867874138138 567.7333333333333,769.8677040906409 568.4000000000001,769.8674297076037 569.0666666666666,769.8673799255693 569.7333333333333,769.8669027690017 570.4000000000001,769.8663236289042 571.0666666666666,769.8656438240652 571.7333333333333,769.8648648736751 572.4,769.86398848117 573.0666666666666,769.863016516782 573.7333333333333,769.8616025291386 574.4000000000001,769.8604438122954 575.0666666666667,769.8591962015961 575.7333333333333,769.8578620378088 576.4,769.8564437340996 577.0666666666666,769.8549437585098 577.7333333333333,769.8533646173538 578.4000000000001,769.8520649290834 579.0666666666667,769.8503331199951 579.7333333333333,769.8485395466305 580.4,769.846320210335 581.0666666666666,769.8443905533662 581.7333333333333,769.8423965972944 582.4000000000001,769.8403407511615 583.0666666666666,769.8382253744636 583.7333333333333,769.8360527715153 584.4,769.8338251868643 585.0666666666666,769.831604947261 585.7333333333333,769.8292799459234 586.3999999999999,769.8269061223689 587.0666666666667,769.8248347086608 587.7333333333333,769.8223679452805 588.4000000000001,769.8195111790247 589.0666666666666,769.8169611783345 589.7333333333332,769.8143715633075 590.4000000000001,769.8117439687192 591.0666666666666,769.8094215575625 591.7333333333333,769.8067212544248 592.4,769.8039874626639 593.0666666666666,769.8012215639783 593.7333333333333,769.7984248800221 594.3999999999999,769.7955986744331 595.0666666666667,769.7927441549065 595.7333333333333,769.7898624752931 596.4,769.7869547377035 597.0666666666666,769.7840219946 597.7333333333333,769.7807380258375 598.4000000000001,769.7780854658357 599.0666666666666,769.7747592171993 599.7333333333333,769.7717374877536 600.4,769.7686953323213 601.0666666666666,769.7659536153291 601.7333333333333,769.76287155604 602.4000000000001,769.7599403672458 603.0666666666666,769.7568254036304 603.7333333333333,769.7535193143422 604.4,769.7503687533782 605.0666666666666,769.7473818719112 605.7333333333333,769.7438924211339 606.4,769.7407005423119 607.0666666666667,769.7374946932066 607.7333333333333,769.7342753794536 608.4,769.7310430845528 609.0666666666666,769.7277982709427 609.7333333333333,769.724541381022 610.4000000000001,769.7212728381209 611.0666666666666,769.717993047423 611.7333333333333,769.7147023968434 612.4,769.7116026478591 613.0666666666666,769.7080899863063 613.7333333333333,769.7044726585802 614.4,769.7011432453123 615.0666666666667,769.6980125693277 615.7333333333333,769.694457217379 616.3999999999999,769.6913122030654 617.0666666666666,769.6877368636368 617.7333333333333,769.6845784633243 618.4000000000001,769.6811997388506 619.0666666666666,769.6775966706053 619.7333333333333,769.6742016860679 620.4000000000001,769.6707996256841 621.0666666666666,769.6673907065775 621.7333333333333,769.6639751374901 622.4,769.6602700198565 623.0666666666666,769.657124844688 623.7333333333333,769.653690499868 624.4,769.6504770009515 625.0666666666667,769.6470321644974 625.7333333333332,769.6433029584263 626.4,769.6398479853331 627.0666666666666,769.6363877361772 627.7333333333333,769.6326459658715 628.4,769.6291764310484 629.0666666666667,769.6257020401847 629.7333333333333,769.6222229272621 630.4,769.6187392215511 631.0666666666666,769.6152510478078 631.7333333333333,769.6117238507875 632.4,769.6082287421702 633.0666666666666,769.6049999133398 633.7333333333333,769.6014958810248 634.4,769.5979879258635 635.0666666666666,769.5944761496592 635.7333333333333,769.5909606508274 636.4,769.587441524532 637.0666666666667,769.5839188628141 637.7333333333333,769.5801272800636 638.4000000000001,769.5765984811626 639.0666666666666,769.5730663963876 639.7333333333332,769.5692674710003 640.4,769.5659926901878 641.0666666666666,769.5621888650552 641.7333333333333,769.5586450466437 642.4,769.5550983138321 643.0666666666667,769.5518092398155 643.7333333333333,769.5485067798186 644.4,769.5447006182936 645.0666666666667,769.5413940549445 645.7333333333333,769.537833773276 646.4,769.5342709586671 647.0666666666667,769.530705668807 647.7333333333333,769.5271379596842 648.4000000000001,769.5235678856482 649.0666666666666,769.5202505856265 649.7333333333333,769.5164213929756 650.4,769.5128456040402 651.0666666666667,769.5092676367236 651.7333333333333,769.5059410575853 652.4000000000001,769.5023583624652 653.0666666666666,769.4987736332063 653.7333333333333,769.4949349099888 654.4,769.4913467343322 655.0666666666667,769.4880076679799 655.7333333333333,769.4841646819716 656.4,769.4808209503822 657.0666666666667,769.4769752892008 657.7333333333333,769.4733779340971 658.4,769.4697788546109 659.0666666666667,769.4661780856202 659.7333333333332,769.4625756610841 660.4000000000001,769.4589716140731 661.0666666666666,769.4553659767965 661.7333333333335,769.4517587806308 662.4,769.4481500561452 663.0666666666666,769.4445398331274 663.7333333333333,769.4406828230971 664.4,769.4370701029488 665.0666666666667,769.4337216948569 665.7333333333333,769.4298622140998 666.3999999999999,769.4262460933085 667.0666666666667,769.422628623407 667.7333333333332,769.4187427295104 668.4000000000001,769.4151222782425 669.0666666666666,769.4117683679881 669.7333333333333,769.408145747591 670.4,769.4045218981167 671.0666666666666,769.4008968418688 671.7333333333333,769.397270600621 672.4,769.3936431956338 673.0666666666666,769.389774375561 673.7333333333333,769.3864150130479 674.4,769.3830245786162 675.0666666666667,769.379153715296 675.7333333333332,769.3755214482959 676.4,769.3718881274974 677.0666666666666,769.3682537710825 677.7333333333333,769.3646183968222 678.4,769.360982022088 679.0666666666667,769.3573446638633 679.7333333333333,769.3534692492566 680.4,769.3498302953898 681.0666666666666,769.3461904035107 681.7333333333333,769.3425495891987 682.4,769.3389078676944 683.0666666666666,769.3352652539074 683.7333333333333,769.3318959002029 684.4,769.3282518092946 685.0666666666666,769.324606865745 685.7333333333333,769.3211954836478 686.4,769.3175485808738 687.0666666666667,769.313900868644 687.7333333333333,769.3102523598012 688.4000000000001,769.30660306692 689.0666666666666,769.3029530023146 689.7333333333332,769.2993021780451 690.4,769.2956506059243 691.0666666666666,769.2919982975232 691.7333333333333,769.2883452641781 692.4,769.2846915169956 693.0666666666667,769.281037066859 693.7333333333333,769.277381924433 694.4,769.2737261001703 695.0666666666667,769.2700696043154 695.7333333333333,769.2664124469109 696.4,769.2630333098662 697.0666666666667,769.259375070529 697.7333333333333,769.2557161962844 698.4000000000001,769.252285928419 699.0666666666666,769.2486255652976 699.7333333333333,769.2449645968958 700.4,769.2413030319752 701.0666666666667,769.2376408791314 701.7333333333333,769.2339781467962 702.4000000000001,769.2303148432427 703.0666666666666,769.2266509765883 703.7333333333333,769.2232674507038 704.4,769.219321585691 705.0666666666667,769.2159373474044 705.7333333333333,769.2124981048581 706.4,769.2088314976489 707.0666666666667,769.2051643730272 707.7333333333333,769.2014967381214 708.4,769.197828599931 709.0666666666667,769.1941599653286 709.7333333333332,769.190773379142 710.4000000000001,769.1871039435574 711.0666666666666,769.1834340297398 711.7333333333335,769.1797524095464 712.4,769.1760927929682 713.0666666666666,769.1724214825144 713.7333333333333,769.1685255961128 714.4,769.1648535881117 715.0666666666667,769.1611811370785 715.7333333333333,769.157508248807 716.3999999999999,769.1538349289906 717.0666666666667,769.1501611832252 717.7333333333332,769.1464870170114 718.4000000000001,769.1428124357552 719.0666666666666,769.1391374447718 719.7333333333333,769.1354620492859 720.4,769.1317862544349 721.0666666666666,769.1281100652697 721.7333333333333,769.1244334867571 722.4,769.1205348224177 723.0666666666666,769.1168576629026 723.7333333333333,769.1131801270266 724.4,769.1095022194527 725.0666666666667,769.1058239447673 725.7333333333332,769.1021453074825 726.4,769.0984663120367 727.0666666666666,769.0947869627972 727.7333333333333,769.0911072640604 728.4,769.0874272200541 729.0666666666667,769.0837468349386 729.7333333333333,769.0803529588501 730.4,769.0766720342333 731.0666666666666,769.0729907794578 731.7333333333333,769.0695285277926 732.4,769.0658464595369 733.0666666666666,769.0621640739125 733.7333333333333,769.0584813746434 734.4,769.0547983653954 735.0666666666666,769.0508965326293 735.7333333333333,769.0472130730817 736.4,769.0435293130627 737.0666666666667,769.0398452560306 737.7333333333333,769.0361609053914 738.4000000000001,769.0324762644992 739.0666666666666,769.0287913366575 739.7333333333332,769.0251061251203 740.4,769.0212032700402 741.0666666666666,769.0175176509106 741.7333333333333,769.0140488201471 742.4,769.0101455898697 743.0666666666667,769.006675922521 743.7333333333333,769.0029890744725 744.4,768.9993019641892 745.0666666666667,768.9956145945591 745.7333333333333,768.9919269684283 746.4,768.9882299807008 747.0666666666667,768.9845509578423 747.7333333333333,768.9811525418598 748.4000000000001,768.9774640218421 749.0666666666666,768.9737752581289 749.7333333333333,768.9700862533386 750.4,768.9663970100526 751.0666666666667,768.9627075308154 751.7333333333333,768.9592327433926 752.4000000000001,768.9555426661709 753.0666666666666,768.951852361313 753.7333333333333,768.9481618312147 754.4,768.9444710782387 755.0666666666667,768.9407801047148 755.7333333333333,768.9373800929477 756.4,768.9336887804016 757.0666666666667,768.9299972533906 757.7333333333333,768.9265192475054 758.4,768.9228271723391 759.0666666666667,768.9191348900728 759.7333333333332,768.9154424028214 760.4000000000001,768.9117497126718 761.0666666666666,768.9080568216823 761.7333333333335,768.9043637318837 762.4,768.9006704452796 763.0666666666666,768.8969769638471 763.7333333333333,768.8932832895366 764.4,768.889589424273 765.0666666666667,768.8858953699556 765.7333333333333,768.8822011284587 766.3999999999999,768.8787187844351 767.0666666666667,768.8750240585347 767.7333333333332,768.8713291516543 768.4000000000001,768.8674223273106 769.0666666666666,768.8639388020172 769.7333333333333,768.8600318506215 770.4,768.8563363493325 771.0666666666666,768.8526406750059 771.7333333333333,768.8489448293082 772.4,768.8455421915039 773.0666666666666,768.8418460874275 773.7333333333333,768.8381498163063 774.4,768.8344533797297 775.0666666666667,768.8307567792667 775.7333333333332,768.827060016467 776.4,768.8233630928606 777.0666666666666,768.8196660099585 777.7333333333333,768.8159687692529 778.4,768.812061139456 779.0666666666667,768.8083636914337 779.7333333333333,768.8046660893588 780.4,768.8009683346562 781.0666666666666,768.797270428734 781.7333333333333,768.7937820924096 782.4,768.7900837873403 783.0666666666666,768.7861758174699 783.7333333333333,768.782686739009 784.4,768.7789879984016 785.0666666666666,768.775583878093 785.7333333333333,768.7718849237418 786.4,768.7681858289451 787.0666666666667,768.764486594964 787.7333333333333,768.7607872230452 788.4000000000001,768.7570877144203 789.0666666666666,768.7533880703064 789.7333333333332,768.7496882919062 790.4,768.7459883804083 791.0666666666666,768.74249667569 791.7333333333333,768.7385881628041 792.4,768.7348878590062 793.0666666666667,768.7311874267274 793.7333333333333,768.7274868670886 794.4,768.7239940598996 795.0666666666667,768.72008537015 795.7333333333333,768.7163844350277 796.4,768.7126833769012 797.0666666666667,768.7089821968282 797.7333333333333,768.7055768831011 798.4000000000001,768.7018755245177 799.0666666666666,768.6978779353295 799.7333333333333,768.6944724506883 800.4,768.690770737459 801.0666666666667,768.6870689080124 801.7333333333333,768.6833669633287 802.4000000000001,768.679664904377 803.0666666666666,768.6759627321161 803.7333333333333,768.6722604474936 804.4,768.6685580514469 805.0666666666667,768.6648555449029 805.7333333333333,768.6611529287785 806.4,768.6576565734314 807.0666666666667,768.6537473714046 807.7333333333333,768.6502506374894 808.4,768.6463413864597 809.0666666666667,768.6426382358352 809.7333333333332,768.6389349809234 810.4000000000001,768.6352316225734 811.0666666666666,768.6317339649099 811.7333333333335,768.6278245989084 812.4,768.624120935246 813.0666666666666,768.6204171714506 813.7333333333333,768.6167133083266 814.4,768.6130093466695 815.0666666666667,768.6093052872669 815.7333333333333,768.6056011308976 816.3999999999999,768.6018968783325 817.0666666666667,768.5981925303339 817.7333333333332,768.5942829951193 818.4000000000001,768.5905785338758 819.0666666666666,768.5868739790574 819.7333333333333,768.583169331398 820.4,768.5794645916241 821.0666666666666,768.5757597604544 821.7333333333333,768.5720548386004 822.4,768.568349826766 823.0666666666666,768.5646447256482 823.7333333333333,768.5607350464118 824.4,768.5572342583133 825.0666666666667,768.5535288934545 825.7333333333332,768.5498234420286 826.4,768.5461179046974 827.0666666666666,768.5422081498976 827.7333333333333,768.5387065749337 828.4,768.5350007837916 829.0666666666667,768.5312949093257 829.7333333333333,768.5278874809856 830.4,768.5241814892051 831.0666666666666,768.5204754157153 831.7333333333333,768.5164705907112 832.4,768.5130630260509 833.0666666666666,768.5093567110831 833.7333333333333,768.5056503168196 834.4,768.5021472010253 835.0666666666666,768.4984405831972 835.7333333333333,768.4947338881398 836.4,768.4910271164223 837.0666666666667,768.4873202686083 837.7333333333333,768.4836133452558 838.4000000000001,768.4799063469173 839.0666666666666,768.4764984576748 839.7333333333332,768.472791355051 840.4,768.4690841788396 841.0666666666666,768.4650776145713 841.7333333333333,768.4613702494075 842.4,768.4576628124631 843.0666666666667,768.4539553042546 843.7333333333333,768.4502477252934 844.4,768.4468396057407 845.0666666666667,768.4431319290653 845.7333333333333,768.4394241829285 846.4,768.435716367824 847.0666666666667,768.4318063040593 847.7333333333333,768.4283005326649 848.4000000000001,768.424592513575 849.0666666666666,768.420884427447 849.7333333333333,768.4171762747523 850.4,768.4134680559574 851.0666666666667,768.4097597715249 851.7333333333333,768.4060514219129 852.4000000000001,768.4020429843929 853.0666666666666,768.3988361124319 853.7333333333333,768.3949259865174 854.4,768.3912173806841 855.0666666666667,768.3875087118992 855.7333333333333,768.3840013312699 856.4,768.3800911872037 857.0666666666667,768.3763823321481 857.7333333333333,768.3726734158506 858.4,768.3689644387291 859.0666666666667,768.3652554011976 859.7333333333332,768.3615463036663 860.4000000000001,768.3578371465418 861.0666666666666,768.3541279302269 861.7333333333335,768.3502177585866 862.4,768.3465084805088 863.0666666666666,768.3427991441865 863.7333333333333,768.339591130966 864.4,768.3355809746483 865.0666666666667,768.3318714114527 865.7333333333333,768.3284625514358 866.3999999999999,768.3247529118923 867.0666666666667,768.3208427207314 867.7333333333332,768.3173334654985 868.4000000000001,768.313623659384 869.0666666666666,768.3097134629311 869.7333333333333,768.3060036005292 870.4,768.3022936838262 871.0666666666666,768.2985837131774 871.7333333333333,768.2950738140706 872.4,768.2913636845365 873.0666666666666,768.2876535023231 873.7333333333333,768.2839432677721 874.4,768.2802329812223 875.0666666666667,768.2765226430095 875.7333333333332,768.2728122534666 876.4,768.2691018129239 877.0666666666666,768.2653913217083 877.7333333333333,768.2616807801447 878.4,768.2579701885546 879.0666666666667,768.254259547257 879.7333333333333,768.2503493418169 880.4,768.246838116802 881.0666666666666,768.2431273282692 881.7333333333333,768.2394164912781 882.4,768.2357056061346 883.0666666666666,768.2319946731418 883.7333333333333,768.2282836926005 884.4,768.2245726648088 885.0666666666666,768.2211633127238 885.7333333333333,768.2174522231022 886.4,768.2137410869701 887.0666666666667,768.2100299046166 887.7333333333333,768.2063186763286 888.4000000000001,768.2026074023906 889.0666666666666,768.198896083085 889.7333333333332,768.1951847186914 890.4,768.1914733094876 891.0666666666666,768.1879605385744 891.7333333333333,768.184050357748 892.4,768.1803388157562 893.0666666666667,768.1766272300418 893.7333333333333,768.1729156008715 894.4,768.1692039285097 895.0666666666667,768.1654922132182 895.7333333333333,768.1619788186056 896.4,768.1580686548847 897.0666666666667,768.1545550860366 897.7333333333333,768.1508431570358 898.4000000000001,768.1474335305028 899.0666666666666,768.143419174855 899.7333333333333,768.1400095242657 900.4,768.1362974597378 901.0666666666667,768.1325853545959 901.7333333333333,768.1288732090817 902.4000000000001,768.125161023435 903.0666666666666,768.1212508873025 903.7333333333333,768.1177365326939 904.4,768.1138264035261 905.0666666666667,768.1101141024862 905.7333333333333,768.1064017623214 906.4,768.102689383261 907.0666666666667,768.0989769655331 907.7333333333333,768.0954621216529 908.4,768.0920523332665 909.0666666666667,768.0878394825958 909.7333333333332,768.084126912441" fill="none" stroke="#148579" stroke-width="4" stroke-linecap="round" stroke-linejoin="round"/>
<text x="580" y="390" font-family="Noto Sans CJK TC, sans-serif" font-size="26" font-weight="600" fill="#CB6B27" text-anchor="start">094526：誤差單調惡化</text>
<text x="580" y="426" font-family="Noto Sans CJK TC, sans-serif" font-size="24" font-weight="400" fill="#607387" text-anchor="start">底盤觸發自身 1.2 m guard</text>
<text x="360" y="700" font-family="Noto Sans CJK TC, sans-serif" font-size="26" font-weight="600" fill="#148579" text-anchor="start">100502：到位並保持</text>
<rect x="980" y="232" width="876" height="250" rx="16" fill="#FFF4EC" stroke="#DCE5EE" stroke-width="2"/>
<rect x="980" y="232" width="6" height="250" rx="0" fill="#CB6B27" stroke="none" stroke-width="2"/>
<text x="1004" y="277" font-family="Noto Sans CJK TC, sans-serif" font-size="29" font-weight="700" fill="#CB6B27" text-anchor="start">根因（以既有資料重播，差 0.000000）</text>
<text x="1004" y="323" font-family="Noto Sans CJK TC, sans-serif" font-size="27" font-weight="400" fill="#23394D" text-anchor="start">距離節點在自由空間對每個連桿產生 STATUS_NODATA 列</text>
<text x="1004" y="364" font-family="Noto Sans CJK TC, sans-serif" font-size="27" font-weight="400" fill="#23394D" text-anchor="start">濾波器據此套用 nodata_speed_cap = 0.05，壓住整個 9 維速度框</text>
<text x="1004" y="405" font-family="Noto Sans CJK TC, sans-serif" font-size="27" font-weight="400" fill="#23394D" text-anchor="start">底盤命令 0.0353 &lt; 0.05 原樣通過；手臂 0.9 rad/s → 約 0.004</text>
<text x="1004" y="446" font-family="Noto Sans CJK TC, sans-serif" font-size="27" font-weight="400" fill="#23394D" text-anchor="start">結果：全身解只有底盤那一半被執行</text>
<rect x="980" y="506" width="876" height="240" rx="16" fill="#ECF7F5" stroke="#DCE5EE" stroke-width="2"/>
<rect x="980" y="506" width="6" height="240" rx="0" fill="#148579" stroke="none" stroke-width="2"/>
<text x="1004" y="551" font-family="Noto Sans CJK TC, sans-serif" font-size="29" font-weight="700" fill="#148579" text-anchor="start">修正：狀態分類（門檻值未動）</text>
<text x="1004" y="597" font-family="Noto Sans CJK TC, sans-serif" font-size="27" font-weight="400" fill="#23394D" text-anchor="start">已確認自由空間 → NODATA 讀成「範圍內沒有東西」，不套退化上限</text>
<text x="1004" y="638" font-family="Noto Sans CJK TC, sans-serif" font-size="27" font-weight="400" fill="#23394D" text-anchor="start">資料缺失／過期／TF 失效 → 維持既有失效處置，不得當成自由空間</text>
<text x="1004" y="679" font-family="Noto Sans CJK TC, sans-serif" font-size="27" font-weight="400" fill="#23394D" text-anchor="start">一般有障礙物模式 → 原處理完全不變</text>
<text x="1004" y="720" font-family="Noto Sans CJK TC, sans-serif" font-size="27" font-weight="400" fill="#23394D" text-anchor="start">關節限位、速度框、加速度框、jerk 框一律保留</text>
<rect x="980" y="756" width="876" height="66" rx="0" fill="#163451" stroke="none" stroke-width="2"/>
<text x="1002" y="800" font-family="Noto Sans CJK TC, sans-serif" font-size="27" font-weight="600" fill="white" text-anchor="start">量</text>
<text x="1302" y="800" font-family="Noto Sans CJK TC, sans-serif" font-size="27" font-weight="600" fill="white" text-anchor="start">094526</text>
<text x="1582" y="800" font-family="Noto Sans CJK TC, sans-serif" font-size="27" font-weight="600" fill="white" text-anchor="start">100502</text>
<rect x="980" y="822" width="876" height="52" rx="0" fill="#F0F7F6" stroke="none" stroke-width="2"/>
<polyline points="980,874 1856,874" fill="none" stroke="#DCE5EE" stroke-width="1" stroke-linecap="round" stroke-linejoin="round"/>
<text x="1002" y="857.8" font-family="Noto Sans CJK TC, sans-serif" font-size="28" font-weight="400" fill="#23394D" text-anchor="start">安全層 speed_cap</text>
<text x="1302" y="857.8" font-family="Noto Sans CJK TC, sans-serif" font-size="28" font-weight="600" fill="#148579" text-anchor="start">0.05</text>
<text x="1582" y="857.8" font-family="Noto Sans CJK TC, sans-serif" font-size="28" font-weight="400" fill="#23394D" text-anchor="start">−1（未施加該項）</text>
<rect x="980" y="874" width="876" height="52" rx="0" fill="#FFFFFF" stroke="none" stroke-width="2"/>
<polyline points="980,926 1856,926" fill="none" stroke="#DCE5EE" stroke-width="1" stroke-linecap="round" stroke-linejoin="round"/>
<text x="1002" y="909.8" font-family="Noto Sans CJK TC, sans-serif" font-size="28" font-weight="400" fill="#23394D" text-anchor="start">cmd_out 手臂 |max|</text>
<text x="1302" y="909.8" font-family="Noto Sans CJK TC, sans-serif" font-size="28" font-weight="600" fill="#148579" text-anchor="start">0.024771</text>
<text x="1582" y="909.8" font-family="Noto Sans CJK TC, sans-serif" font-size="28" font-weight="400" fill="#23394D" text-anchor="start">0.999900</text>
<rect x="64" y="932" width="1792" height="98" rx="16" fill="#163451" stroke="none" stroke-width="2"/>
<text x="88" y="973" font-family="Noto Sans CJK TC, sans-serif" font-size="29" font-weight="600" fill="white" text-anchor="start">修的是「未知」與「已確認空場景」的分類，不是把退化上限調大</text>
<text x="88" y="1009" font-family="Noto Sans CJK TC, sans-serif" font-size="22" font-weight="400" fill="#D3E1EE" text-anchor="start">speed_cap = −1 表示未施加該項退化上限，不是取消所有速度限制</text>
<text x="1856" y="1060" font-family="Noto Sans CJK TC, sans-serif" font-size="18" font-weight="400" fill="#607387" text-anchor="end">資料截至 2026-09-10</text>
<rect x="1500" y="1036" width="360" height="34" rx="0" fill="white" stroke="none" stroke-width="2"/>
<text x="1856" y="1060" font-family="Noto Sans CJK TC, sans-serif" font-size="18" font-weight="400" fill="#607387" text-anchor="end">資料截至 2026-09-14</text>
</svg>